<?xml version="1.0" encoding="utf-8"?>
<!-- Generator: Adobe Illustrator 27.7.0, SVG Export Plug-In . SVG Version: 6.00 Build 0)  -->
<svg version="1.1" id="Layer_4" xmlns="http://www.w3.org/2000/svg" xmlns:xlink="http://www.w3.org/1999/xlink" x="0px" y="0px"
	 viewBox="0 0 523.3 171.5" style="enable-background:new 0 0 523.3 171.5;" xml:space="preserve">
<style type="text/css">
	.st0{fill:#3C88AE;}
	.st1{fill:#B43ABE;}
	.st2{fill:#4E62B9;}
	.st3{fill:#4FA368;}
	.st4{fill:#B33BBD;}
	.st5{fill:#3E8BB1;}
</style>
<g>
	<g>
		<path class="st0" d="M199.8,99.6l-4.7,11.5c-0.4,1-1.2,1.5-2.3,1.5h-0.5c-1.2,0-1.9-0.6-2.2-1.7l-3.6-13.1l-1.8,13
			c-0.1,0.7-0.5,1-1.1,1h-5.8c-0.8,0-1.2-0.4-1.2-1.1v-0.1l1.3-40.4c0.1-1.5,0.8-2.2,2.3-2.2h7.2c1.3,0,2.1,0.6,2.6,1.9l4.3,13.1
			l4.8-13c0.5-1.2,1.3-1.9,2.6-1.9h7.4c1.5,0,2.3,0.7,2.3,2.1c0,0.1,0,0.1,0,0.1l-1.4,42.2c0,0.7-0.4,1.1-1.2,1.1h-5
			c-0.6,0-1-0.3-1.2-0.9L199.8,99.6z"/>
		<path class="st0" d="M230.5,75c0.2,0.5,0.5,0.7,1,0.7s0.8-0.2,1-0.6l6.3-12.2c0.2-0.4,0.5-0.6,1-0.6h7.5c0.8,0,1.2,0.4,1.2,1.2
			c0,0.1,0,0.2-0.1,0.4l-9.6,26.7l-3.2,18.9c-0.3,1.8-1.3,2.7-3.1,2.7h-8.3c-1.2,0-1.9-0.7-1.9-2c0-0.2,0-0.4,0-0.6l1.9-16.7
			l-9.7-23.4c-0.3-0.7-0.4-1.2-0.4-1.7c0-1.2,0.8-1.7,2.5-1.7h7.8c1.2,0,2.1,0.5,2.5,1.5L230.5,75z"/>
		<path class="st1" d="M278.2,110.1c-0.1,1.3-0.8,1.9-2,1.9h-5.5c-1.3,0-2-0.7-2-2l-0.5-25.5c0-0.8-0.4-1.2-1.2-1.2h-5
			c-1.5,0-2.3-0.8-2.3-2.3V69.4c0-1.5,0.7-2.3,2.2-2.3l26.5-1.2h0.1c0.7,0,1.1,0.4,1.1,1.2v15.3c0,0.8-0.4,1.2-1.1,1.2l0,0l-7.8-0.1
			l0,0c-0.7,0-1.1,0.4-1.1,1.1L278.2,110.1z"/>
		<path class="st1" d="M292.9,69.8L292.9,69.8c0-1.6,0.8-2.3,2.3-2.3h10.6c1.5,0,2.3,0.7,2.3,2.1c0,0.1,0,0.1,0,0.2l-1.9,39.8
			c-0.1,1.5-0.8,2.2-2.3,2.2h-8.2c-1.5,0-2.3-0.8-2.3-2.3L292.9,69.8z"/>
		<path class="st1" d="M323.2,94.2l-1.7,16c-0.1,1.3-0.8,1.9-2.1,1.9h-5.6c-1.3,0-2-0.7-2-2l0,0l0.5-41.8c0-1.3,0.7-2,2-2h6.4
			c0.4,0,0.7,0.2,0.9,0.5L332.2,80l4.4-19.9c0.3-1.1,1-1.7,2.1-1.7h4.9c1.3,0,1.9,0.6,1.9,1.7c0,0.1,0,0.2,0,0.3l-4.6,49.2
			c-0.1,1.2-0.8,1.9-2.1,1.9h-5.2c-0.4,0-0.8-0.2-1-0.6L323.2,94.2z"/>
		<path class="st1" d="M374.8,104.2l-0.1,5.8c0,1.3-0.7,2-2,2h-21.5c-2.1,0-3.1-1-3.1-3.1L348,69.7c0-1.9,0.9-2.8,2.8-2.8l21.4-0.1
			c1.7,0,2.6,0.8,2.6,2.5l0,0l-0.1,8.9c0,1.7-0.9,2.6-2.6,2.6h-12.8c-0.8,0-1.1,0.4-1.1,1.2v3.7c0,0.7,0.3,1.1,1,1.2l12.3,1.5
			c0.7,0.1,1,0.4,1,1.1l0,0l-0.1,4c0,1.3-0.7,2-2,2l-10.7-0.1c-1.3,0-2,0.7-2,2v3.6c0,0.8,0.4,1.2,1.2,1.2l13.9,0.1
			C374.2,102.2,374.8,102.9,374.8,104.2L374.8,104.2z"/>
		<path class="st1" d="M411,110.8c0.1,0.2,0.1,0.3,0.1,0.5c0,0.1,0,0.3-0.1,0.4c-0.2,0.2-0.4,0.3-0.8,0.3h-9.6
			c-0.3,0-0.5-0.1-0.7-0.3l-10.7-15.8l-1.1,14c-0.1,1.1-0.7,1.7-1.8,1.7h-6.1c-1.1,0-1.7-0.6-1.7-1.7V68.7c0-1.5,0.7-2.3,2-2.3
			l17.9-0.8c0.2,0,0.4,0,0.6,0c2.8,0,5.2,0.9,7.2,2.6c2,1.8,3,4.1,3,6.9v8.2c0,3-1,5.4-3.1,7.4l-3.5,3.3L411,110.8z M398.9,81.4
			c0-1.5-0.8-2.4-2.3-2.7l-5.6-1.3c-0.1,0-0.2,0-0.3,0c-0.5,0-0.7,0.3-0.7,0.8l-0.5,9.5v0.1c0,0.6,0.3,0.9,0.8,0.9
			c0.1,0,0.3-0.1,0.5-0.2l6.1-3.9C398.2,83.8,398.9,82.7,398.9,81.4z"/>
		<path class="st1" d="M450.3,109.3c0.1,0.4,0.2,0.8,0.2,1.1c0,1.1-0.7,1.6-2,1.6h-8.7c-0.8,0-1.4-0.4-1.9-1.2l-2.2-4.3l-10.7-1.6
			l-2.2,5.5c-0.4,1-1.2,1.5-2.3,1.5h-7.2c-1.1,0-1.7-0.5-1.7-1.4c0-0.4,0.1-0.8,0.3-1.4l13.3-41.6c0.4-1.1,1.1-1.6,2.2-1.6h9.7
			c1.1,0,1.9,0.6,2.2,1.7L450.3,109.3z M434.2,96.6l-2.8-9c-0.2-0.5-0.5-0.8-1-0.8c-0.6,0-1,0.3-1.2,0.9l-2.7,8.5
			c-0.1,0.2-0.1,0.4-0.1,0.5c0,0.6,0.4,0.9,1.1,1l4.7,0.5c0.2,0,0.3,0,0.5,0c1,0,1.5-0.4,1.5-1.1C434.2,96.9,434.2,96.8,434.2,96.6z
			"/>
		<path class="st1" d="M485.8,110.8c0.1,0.2,0.1,0.3,0.1,0.5c0,0.1,0,0.3-0.1,0.4c-0.2,0.2-0.4,0.3-0.8,0.3h-9.6
			c-0.3,0-0.5-0.1-0.7-0.3L464,95.9l-1.1,14c-0.1,1.1-0.7,1.7-1.8,1.7H455c-1.1,0-1.7-0.6-1.7-1.7V68.7c0-1.5,0.7-2.3,2-2.3
			l17.9-0.8c0.2,0,0.4,0,0.6,0c2.8,0,5.2,0.9,7.2,2.6c2,1.8,3,4.1,3,6.9v8.2c0,3-1,5.4-3.1,7.4l-3.5,3.3L485.8,110.8z M473.7,81.4
			c0-1.5-0.8-2.4-2.3-2.7l-5.6-1.3c-0.1,0-0.2,0-0.3,0c-0.5,0-0.7,0.3-0.7,0.8l-0.5,9.5v0.1c0,0.6,0.3,0.9,0.8,0.9
			c0.1,0,0.3-0.1,0.5-0.2l6.1-3.9C473.1,83.8,473.7,82.7,473.7,81.4z"/>
		<path class="st1" d="M502,75c0.2,0.5,0.5,0.7,1,0.7s0.8-0.2,1-0.6l6.3-12.2c0.2-0.4,0.5-0.6,1-0.6h7.5c0.8,0,1.2,0.4,1.2,1.2
			c0,0.1,0,0.2-0.1,0.4l-9.6,26.7l-3.2,18.9c-0.3,1.8-1.3,2.7-3.1,2.7h-8.3c-1.2,0-1.9-0.7-1.9-2c0-0.2,0-0.4,0-0.6l1.9-16.7
			L486,69.5c-0.3-0.7-0.4-1.2-0.4-1.7c0-1.2,0.8-1.7,2.5-1.7h7.8c1.2,0,2.1,0.5,2.5,1.5L502,75z"/>
	</g>
	<g>
		<path class="st2" d="M209.6,135.7c-0.2,0-0.4,0.1-0.7,0.1s-0.4,0-0.6,0c-0.2,0-0.4,0-0.7,0c-0.2,0-0.5,0-0.7-0.1v-12.9l0.1-0.1
			h2.5v1c0,0.5,0,1,0,1.5s0,1,0,1.5L209.6,135.7L209.6,135.7z M215.2,122.7c0,0.1,0.1,0.3,0.1,0.5s0,0.4,0,0.5
			c0,0.4-0.1,0.7-0.4,0.9c-0.2,0.2-0.6,0.3-1.1,0.3h-2.7c-0.5,0-1,0-1.4,0s-0.9,0-1.3,0v-2.1h6.8V122.7z M214.1,128.2
			c0,0.2,0.1,0.3,0.1,0.5s0,0.4,0,0.5s0,0.3,0,0.5s-0.1,0.4-0.1,0.5h-3.9c-0.3,0-0.5,0-0.8,0s-0.5,0-0.8,0v-2c0.2,0,0.5,0,0.8,0
			s0.6,0,0.8,0H214.1z"/>
		<path class="st2" d="M219.4,122.7c0.2,0,0.4-0.1,0.7-0.1c0.3,0,0.5,0,0.6,0c0.2,0,0.4,0,0.6,0s0.5,0,0.7,0.1v13
			c-0.2,0-0.4,0.1-0.7,0.1s-0.5,0-0.6,0c-0.2,0-0.4,0-0.6,0s-0.5,0-0.7-0.1L219.4,122.7L219.4,122.7z"/>
		<path class="st2" d="M227.3,122.8c0.2,0,0.5-0.1,0.8-0.1s0.6,0,0.8,0c0.2,0,0.4,0,0.7,0c0.3,0,0.6,0,0.8,0.1l-0.7,2.9h-0.2
			c0,0.5,0.1,1,0.1,1.7c0,0.6,0.1,1.2,0.1,1.8s0,1.2,0,1.7v4.8c-0.2,0-0.4,0.1-0.6,0.1s-0.4,0-0.6,0s-0.4,0-0.6,0s-0.5,0-0.7-0.1
			v-12.9H227.3z M230.9,128.4c-0.2-0.5-0.5-1-0.7-1.4c-0.2-0.5-0.4-0.9-0.5-1.3l-1.2-1.4l2-1.6l3.6,7.4c0.2,0.5,0.5,1,0.7,1.5
			s0.4,0.9,0.6,1.3l1.3,1.4l-2.2,1.4L230.9,128.4z M237.7,122.7v12.9c-0.2,0-0.5,0.1-0.8,0.1s-0.6,0-0.8,0c-0.2,0-0.4,0-0.7,0
			s-0.6,0-0.8-0.1l0.7-2.8h0.2c0-0.6-0.1-1.1-0.1-1.8c0-0.6-0.1-1.3-0.1-1.9c0-0.6,0-1.1,0-1.6V124c0-0.6,0.1-1,0.3-1.2
			c0.2-0.2,0.6-0.4,1.1-0.4h0.9L237.7,122.7z"/>
		<path class="st2" d="M253.4,129.2c0,0.7-0.1,1.5-0.2,2.1s-0.3,1.3-0.6,1.9c-0.3,0.6-0.8,1.1-1.4,1.6c-0.3,0.2-0.7,0.4-1.1,0.6
			c-0.4,0.1-0.8,0.2-1.3,0.3s-0.8,0.1-1.2,0.1c-0.5,0-1.1,0-1.6,0s-1,0-1.5,0s-1,0-1.6,0l-0.1-0.1v-12.8l0.1-0.1c0.6,0,1.1,0,1.6,0
			s1,0,1.5,0s1,0,1.6,0c0.4,0,0.8,0,1.2,0.1s0.9,0.2,1.3,0.3c0.4,0.1,0.8,0.3,1.1,0.6c0.6,0.5,1.1,1,1.4,1.6s0.5,1.2,0.6,1.9
			C253.4,127.8,253.4,128.5,253.4,129.2z M250.7,129.2c0-0.5,0-1.1-0.1-1.6c-0.1-0.5-0.2-1-0.4-1.5c-0.2-0.4-0.5-0.8-0.9-1.1
			s-0.9-0.4-1.6-0.4c-0.4,0-0.7,0-1.1,0c-0.3,0-0.7,0-1.1,0v9.2c0.4,0,0.8,0,1.1,0c0.3,0,0.7,0,1.1,0c0.6,0,1.2-0.1,1.6-0.4
			s0.7-0.6,0.9-1.1c0.2-0.5,0.3-0.9,0.4-1.5C250.6,130.3,250.7,129.7,250.7,129.2z"/>
		<path class="st2" d="M276.7,122.7c0.2,0,0.4-0.1,0.6-0.1s0.4,0,0.5,0c0.2,0,0.5,0,0.7,0s0.4,0.1,0.6,0.1l0.1,0.2l-4,9h-2.3l-4-9
			c0.2-0.1,0.5-0.2,0.8-0.3s0.6-0.1,0.8-0.1c0.4,0,0.7,0.1,0.9,0.2c0.2,0.2,0.4,0.4,0.5,0.8l1.2,2.9c0.2,0.4,0.3,0.8,0.5,1.2
			c0.1,0.4,0.3,0.9,0.4,1.3h0.1c0.1-0.3,0.2-0.6,0.3-0.9c0.1-0.3,0.2-0.6,0.3-0.9c0.1-0.3,0.2-0.6,0.3-0.8L276.7,122.7z
			 M272.7,130.1h2.7v5.6c-0.2,0-0.4,0.1-0.7,0.1s-0.5,0-0.6,0c-0.2,0-0.4,0-0.6,0c-0.3,0-0.5,0-0.7-0.1L272.7,130.1L272.7,130.1z"/>
		<path class="st2" d="M281.7,129.2c0-1.3,0.2-2.5,0.6-3.5s1-1.8,1.9-2.4c0.8-0.6,1.9-0.9,3.2-0.9c1.3,0,2.4,0.3,3.2,0.9
			c0.8,0.6,1.5,1.4,1.9,2.4s0.6,2.2,0.6,3.5s-0.2,2.5-0.6,3.5s-1,1.8-1.9,2.4c-0.8,0.6-1.9,0.9-3.2,0.9c-1.3,0-2.4-0.3-3.2-0.9
			s-1.5-1.4-1.9-2.4C281.9,131.7,281.7,130.5,281.7,129.2z M284.5,129.2c0,0.5,0,1.1,0.1,1.6c0.1,0.6,0.2,1.1,0.4,1.5
			c0.2,0.5,0.5,0.9,0.9,1.1c0.4,0.3,0.9,0.4,1.5,0.4s1.1-0.1,1.5-0.4c0.4-0.3,0.7-0.7,0.9-1.1c0.2-0.5,0.3-1,0.4-1.5
			s0.1-1.1,0.1-1.6s0-1.1-0.1-1.6c-0.1-0.6-0.2-1.1-0.4-1.5s-0.5-0.9-0.9-1.1c-0.4-0.3-0.9-0.4-1.5-0.4s-1.1,0.1-1.5,0.4
			s-0.7,0.7-0.9,1.1s-0.3,1-0.4,1.5C284.5,128.1,284.5,128.7,284.5,129.2z"/>
		<path class="st2" d="M307.7,131c0,1.1-0.2,2-0.6,2.7s-1,1.3-1.8,1.7s-1.7,0.6-2.8,0.6c-1.1,0-2-0.2-2.8-0.6
			c-0.8-0.4-1.4-0.9-1.8-1.7c-0.4-0.7-0.6-1.6-0.6-2.7v-8.3l0.1-0.1h1c0.5,0,0.9,0.1,1.2,0.4c0.3,0.3,0.4,0.7,0.4,1.2v6.8
			c0,1,0.2,1.7,0.6,2.2s1,0.7,1.9,0.7s1.5-0.2,1.9-0.7s0.6-1.2,0.6-2.2v-8.3c0.2,0,0.4-0.1,0.7-0.1c0.2,0,0.4,0,0.6,0s0.4,0,0.7,0
			c0.3,0,0.5,0,0.7,0.1L307.7,131L307.7,131z"/>
		<path class="st2" d="M322.1,126.7c0,0.6-0.1,1.1-0.4,1.6c-0.2,0.5-0.5,0.9-0.9,1.2s-0.8,0.5-1.2,0.7c0.3,0.1,0.6,0.3,0.9,0.6
			c0.2,0.3,0.4,0.7,0.6,1l0.7,1.9c0.1,0.3,0.3,0.6,0.4,0.8s0.3,0.4,0.5,0.6c-0.2,0.2-0.4,0.4-0.8,0.5c-0.3,0.1-0.7,0.2-1,0.2
			c-0.5,0-0.8-0.1-1.1-0.4c-0.2-0.3-0.4-0.6-0.6-1.1l-0.8-2.3c-0.1-0.4-0.3-0.7-0.6-1c-0.3-0.3-0.7-0.4-1.2-0.4h-2.3v-1.9
			c0.3,0,0.6,0,1,0s0.7,0,1.1,0s0.6,0,0.8,0c0.6,0,1-0.1,1.3-0.3s0.5-0.5,0.6-0.8s0.2-0.6,0.2-1s-0.1-0.7-0.2-1s-0.3-0.6-0.6-0.8
			s-0.7-0.3-1.3-0.3c-0.2,0-0.5,0-0.8,0s-0.7,0-1,0v11.1c-0.2,0-0.4,0.1-0.7,0.1s-0.5,0-0.6,0c-0.2,0-0.4,0-0.6,0s-0.5,0-0.7-0.1
			v-12.9l0.1-0.1c0.8,0,1.6,0,2.3,0c0.7,0,1.5,0,2.2,0c0.9,0,1.7,0.1,2.4,0.4c0.7,0.3,1.2,0.7,1.6,1.3
			C321.9,125,322.1,125.8,322.1,126.7z"/>
		<path class="st2" d="M348.6,127c0,1-0.2,1.8-0.6,2.4s-1,1.1-1.7,1.5c-0.7,0.3-1.5,0.5-2.4,0.5H341v-1.9c0.2,0,0.5,0,0.9,0
			s0.7,0,1.1,0s0.6,0,0.8,0c0.6,0,1-0.1,1.3-0.4s0.5-0.6,0.6-0.9c0.1-0.4,0.2-0.7,0.2-1.1c0-0.3-0.1-0.7-0.2-1.1s-0.3-0.7-0.6-0.9
			s-0.8-0.4-1.3-0.4c-0.2,0-0.5,0-0.8,0s-0.6,0-0.9,0v11.1c-0.2,0-0.4,0.1-0.7,0.1s-0.5,0-0.6,0c-0.2,0-0.4,0-0.6,0
			c-0.3,0-0.5,0-0.7-0.1v-12.9l0.1-0.1c0.8,0,1.5,0,2.2,0s1.4,0,2.1,0c0.9,0,1.7,0.2,2.4,0.5c0.7,0.3,1.3,0.8,1.7,1.4
			C348.4,125.2,348.6,126,348.6,127z"/>
		<path class="st2" d="M352.8,122.9l0.1-0.1h2.5v2.1c0,0.3,0,0.5,0,0.7s0,0.4,0,0.7v6.3c0,0.2,0,0.4,0,0.6c0,0.2,0,0.4,0,0.6v2.1
			h-1.1c-0.5,0-0.8-0.1-1.1-0.4c-0.3-0.3-0.4-0.6-0.4-1.1V122.9z M361.2,122.7c0,0.2,0.1,0.4,0.1,0.5s0,0.3,0,0.5c0,0.1,0,0.3,0,0.5
			s-0.1,0.4-0.2,0.6h-4.3c-0.2,0-0.4,0-0.6,0c-0.3,0-0.5,0-0.8,0s-0.5,0-0.7,0v-2.1H361.2z M360.1,128.1c0.1,0.2,0.1,0.3,0.1,0.5
			s0,0.4,0,0.5s0,0.3,0,0.5s-0.1,0.4-0.1,0.5h-3.3c-0.2,0-0.4,0-0.6,0c-0.3,0-0.5,0-0.8,0s-0.5,0-0.7,0v-2c0.2,0,0.4,0,0.7,0
			s0.6,0,0.8,0c0.3,0,0.5,0,0.6,0H360.1z M361.7,133.6c0,0.7-0.1,1.3-0.4,1.6s-0.7,0.5-1.4,0.5h-5.4v-2.1c0.4,0,0.7,0,1.1-0.1
			c0.4,0,0.7,0,1.2,0h4.9V133.6z"/>
		<path class="st2" d="M375.4,126.7c0,0.6-0.1,1.1-0.4,1.6c-0.2,0.5-0.5,0.9-0.9,1.2s-0.8,0.5-1.2,0.7c0.3,0.1,0.6,0.3,0.9,0.6
			c0.2,0.3,0.4,0.7,0.6,1l0.7,1.9c0.1,0.3,0.3,0.6,0.4,0.8s0.3,0.4,0.5,0.6c-0.2,0.2-0.4,0.4-0.8,0.5c-0.3,0.1-0.7,0.2-1,0.2
			c-0.5,0-0.8-0.1-1.1-0.4c-0.2-0.3-0.4-0.6-0.6-1.1l-0.8-2.3c-0.1-0.4-0.3-0.7-0.6-1c-0.3-0.3-0.7-0.4-1.2-0.4h-2.3v-1.9
			c0.3,0,0.6,0,1,0s0.7,0,1.1,0s0.6,0,0.8,0c0.6,0,1-0.1,1.3-0.3s0.5-0.5,0.6-0.8s0.2-0.6,0.2-1s-0.1-0.7-0.2-1s-0.3-0.6-0.6-0.8
			s-0.7-0.3-1.3-0.3c-0.2,0-0.5,0-0.8,0s-0.7,0-1,0v11.1c-0.2,0-0.4,0.1-0.7,0.1s-0.5,0-0.6,0c-0.2,0-0.4,0-0.6,0s-0.5,0-0.7-0.1
			v-12.9l0.1-0.1c0.8,0,1.6,0,2.3,0c0.7,0,1.5,0,2.2,0c0.9,0,1.7,0.1,2.4,0.4c0.7,0.3,1.2,0.7,1.6,1.3
			C375.2,125,375.4,125.8,375.4,126.7z"/>
		<path class="st2" d="M382.7,135.7c-0.2,0-0.4,0.1-0.7,0.1c-0.2,0-0.4,0-0.6,0s-0.4,0-0.7,0c-0.2,0-0.5,0-0.7-0.1v-12.9l0.1-0.1
			h2.5v1c0,0.5,0,1,0,1.5s0,1,0,1.5v9H382.7z M388.3,122.7c0,0.1,0.1,0.3,0.1,0.5s0,0.4,0,0.5c0,0.4-0.1,0.7-0.4,0.9
			c-0.2,0.2-0.6,0.3-1.1,0.3h-2.7c-0.5,0-1,0-1.4,0s-0.9,0-1.3,0v-2.1h6.8V122.7z M387.2,128.2c0,0.2,0.1,0.3,0.1,0.5s0,0.4,0,0.5
			s0,0.3,0,0.5s-0.1,0.4-0.1,0.5h-3.9c-0.3,0-0.5,0-0.8,0s-0.5,0-0.8,0v-2c0.2,0,0.5,0,0.8,0s0.6,0,0.8,0H387.2z"/>
		<path class="st2" d="M392.5,122.9l0.1-0.1h2.5v2.1c0,0.3,0,0.5,0,0.7s0,0.4,0,0.7v6.3c0,0.2,0,0.4,0,0.6c0,0.2,0,0.4,0,0.6v2.1
			H394c-0.5,0-0.8-0.1-1.1-0.4c-0.3-0.3-0.4-0.6-0.4-1.1V122.9z M400.8,122.7c0,0.2,0.1,0.4,0.1,0.5s0,0.3,0,0.5c0,0.1,0,0.3,0,0.5
			s-0.1,0.4-0.2,0.6h-4.3c-0.2,0-0.4,0-0.6,0c-0.3,0-0.5,0-0.8,0s-0.5,0-0.7,0v-2.1H400.8z M399.7,128.1c0.1,0.2,0.1,0.3,0.1,0.5
			s0,0.4,0,0.5s0,0.3,0,0.5s-0.1,0.4-0.1,0.5h-3.3c-0.2,0-0.4,0-0.6,0c-0.3,0-0.5,0-0.8,0s-0.5,0-0.7,0v-2c0.2,0,0.4,0,0.7,0
			s0.6,0,0.8,0c0.3,0,0.5,0,0.6,0H399.7z M401.3,133.6c0,0.7-0.1,1.3-0.4,1.6s-0.7,0.5-1.4,0.5h-5.4v-2.1c0.4,0,0.7,0,1.1-0.1
			c0.4,0,0.7,0,1.2,0h4.9V133.6z"/>
		<path class="st2" d="M412.7,127.6c0-0.5-0.1-1-0.2-1.5s-0.4-0.9-0.8-1.2c-0.4-0.3-0.9-0.5-1.5-0.5c-0.9,0-1.6,0.4-2.1,1.2
			c-0.4,0.8-0.7,2-0.7,3.6c0,1.5,0.3,2.6,0.8,3.3c0.5,0.8,1.3,1.1,2.2,1.1c0.7,0,1.3-0.1,1.8-0.4c0.6-0.3,1.1-0.6,1.6-1
			c0.3,0.2,0.5,0.4,0.8,0.7s0.4,0.6,0.5,0.9c-0.4,0.4-0.8,0.7-1.4,1s-1.1,0.5-1.8,0.7s-1.3,0.3-2,0.3c-1,0-1.8-0.2-2.5-0.6
			c-0.7-0.4-1.2-0.9-1.6-1.5s-0.7-1.4-0.9-2.2c-0.2-0.8-0.3-1.6-0.3-2.4c0-1.6,0.3-2.9,0.8-3.9s1.2-1.7,2-2.2s1.8-0.7,2.8-0.7
			s1.9,0.2,2.6,0.5s1.3,0.8,1.7,1.4c0.4,0.6,0.6,1.2,0.6,1.9c0,0.5-0.1,0.8-0.4,1.1c-0.3,0.2-0.6,0.4-1.1,0.4c-0.2,0-0.4,0-0.5,0
			S412.9,127.6,412.7,127.6z"/>
		<path class="st2" d="M418.1,124.9c0-0.2-0.1-0.4-0.1-0.6s0-0.3,0-0.5s0-0.3,0-0.5s0-0.4,0.1-0.6h9.4c0,0.1,0.1,0.3,0.1,0.5
			s0,0.3,0,0.5c0,0.4-0.1,0.7-0.3,0.9s-0.6,0.3-1.1,0.3h-0.9c-0.1,0-0.3,0-0.6,0c-0.3,0-0.5,0-0.6,0h-2.7c-0.1,0-0.3,0-0.6,0
			c-0.3,0-0.5,0-0.6,0C420.2,124.9,418.1,124.9,418.1,124.9z M421.5,126.3c0-0.3,0-0.5,0-0.7s0-0.4,0-0.7v-1h2.6v1
			c0,0.3,0,0.5,0,0.7s0,0.4,0,0.7v9.5c-0.2,0-0.5,0.1-0.7,0.1s-0.4,0-0.6,0s-0.4,0-0.7,0c-0.2,0-0.5,0-0.7-0.1v-9.5H421.5z"/>
		<path class="st2" d="M442.6,124.9c0-0.2-0.1-0.4-0.1-0.6s0-0.3,0-0.5s0-0.3,0-0.5s0-0.4,0.1-0.6h9.4c0,0.1,0.1,0.3,0.1,0.5
			s0,0.3,0,0.5c0,0.4-0.1,0.7-0.3,0.9s-0.6,0.3-1.1,0.3h-0.9c-0.1,0-0.3,0-0.6,0c-0.3,0-0.5,0-0.6,0H446c-0.1,0-0.3,0-0.6,0
			c-0.3,0-0.5,0-0.6,0C444.8,124.9,442.6,124.9,442.6,124.9z M446,126.3c0-0.3,0-0.5,0-0.7s0-0.4,0-0.7v-1h2.6v1c0,0.3,0,0.5,0,0.7
			s0,0.4,0,0.7v9.5c-0.2,0-0.5,0.1-0.7,0.1s-0.4,0-0.6,0s-0.4,0-0.7,0c-0.2,0-0.5,0-0.7-0.1v-9.5H446z"/>
		<path class="st2" d="M465.2,126.7c0,0.6-0.1,1.1-0.4,1.6c-0.2,0.5-0.5,0.9-0.9,1.2s-0.8,0.5-1.2,0.7c0.3,0.1,0.6,0.3,0.9,0.6
			c0.2,0.3,0.4,0.7,0.6,1l0.7,1.9c0.1,0.3,0.3,0.6,0.4,0.8s0.3,0.4,0.5,0.6c-0.2,0.2-0.4,0.4-0.8,0.5c-0.3,0.1-0.7,0.2-1,0.2
			c-0.5,0-0.8-0.1-1.1-0.4c-0.2-0.3-0.4-0.6-0.6-1.1l-0.8-2.3c-0.1-0.4-0.3-0.7-0.6-1c-0.3-0.3-0.7-0.4-1.2-0.4h-2.3v-1.9
			c0.3,0,0.6,0,1,0s0.7,0,1.1,0s0.6,0,0.8,0c0.6,0,1-0.1,1.3-0.3s0.5-0.5,0.6-0.8s0.2-0.6,0.2-1s-0.1-0.7-0.2-1s-0.3-0.6-0.6-0.8
			s-0.7-0.3-1.3-0.3c-0.2,0-0.5,0-0.8,0s-0.7,0-1,0v11.1c-0.2,0-0.4,0.1-0.7,0.1s-0.5,0-0.6,0c-0.2,0-0.4,0-0.6,0s-0.5,0-0.7-0.1
			v-12.9l0.1-0.1c0.8,0,1.6,0,2.3,0c0.7,0,1.5,0,2.2,0c0.9,0,1.7,0.1,2.4,0.4c0.7,0.3,1.2,0.7,1.6,1.3
			C465,125,465.2,125.8,465.2,126.7z"/>
		<path class="st2" d="M469.9,122.7c0.2,0,0.4-0.1,0.7-0.1c0.3,0,0.5,0,0.6,0c0.2,0,0.4,0,0.6,0s0.5,0,0.7,0.1v13
			c-0.2,0-0.4,0.1-0.7,0.1c-0.2,0-0.5,0-0.6,0c-0.2,0-0.4,0-0.6,0c-0.3,0-0.5,0-0.7-0.1V122.7z"/>
		<path class="st2" d="M487,127c0,1-0.2,1.8-0.6,2.4s-1,1.1-1.7,1.5c-0.7,0.3-1.5,0.5-2.4,0.5h-2.9v-1.9c0.2,0,0.5,0,0.9,0
			s0.7,0,1.1,0c0.4,0,0.6,0,0.8,0c0.6,0,1-0.1,1.3-0.4s0.5-0.6,0.6-0.9c0.1-0.4,0.2-0.7,0.2-1.1c0-0.3-0.1-0.7-0.2-1.1
			c-0.1-0.4-0.3-0.7-0.6-0.9s-0.8-0.4-1.3-0.4c-0.2,0-0.5,0-0.8,0s-0.6,0-0.9,0v11.1c-0.2,0-0.4,0.1-0.7,0.1s-0.5,0-0.6,0
			c-0.2,0-0.4,0-0.6,0c-0.3,0-0.5,0-0.7-0.1v-12.9l0.1-0.1c0.8,0,1.5,0,2.2,0s1.4,0,2.1,0c0.9,0,1.7,0.2,2.4,0.5s1.3,0.8,1.7,1.4
			C486.8,125.2,487,126,487,127z"/>
	</g>
	<g>
		<path class="st2" d="M15.1,92.9c0,0-6.2,7.4-5.1,13c1.1,5.5,7.9,10.6,21.9,10.6s55.3-8.4,78.1-31.2c3.7-3.7,4.7-1.8,3.5,1
			c-0.6,1.5-3.5,4.4-3.5,4.4s-35.5,33.2-81.3,33.2c-12.8,0-25.7-2.7-25.7-13.7C2.9,101.7,15.1,92.9,15.1,92.9z"/>
		<path class="st3" d="M31.5,111.9c-3-6.4-4.6-13.5-4.6-20.9c0-27.6,22.5-50,50.3-50c3.1,0,6.1,0.3,9.1,0.8
			c-4.6-1.2-9.4-1.9-14.3-1.9c-30,0-54.3,24.3-54.3,54.3c0,4.6,0.6,9.1,1.7,13.4C22.2,109.3,26.2,111,31.5,111.9z"/>
		<g>
			<path class="st2" d="M77.2,140.9c-15.4,0-29.2-6.9-38.4-17.7c-3.3,0.3-6.7,0.5-10.1,0.5c-0.7,0-1.5,0-2.2,0
				c9.7,14.9,26.5,24.8,45.5,24.8c25,0,46.1-16.9,52.4-40C117.2,127.4,98.8,140.9,77.2,140.9z"/>
		</g>
		<g>
			<polygon class="st4" points="71,134.4 71.1,134.1 71.1,134.5 71.2,133.9 70.7,133.7 70.8,133.3 70.5,133.6 71.1,133.9 
				70.6,133.7 70.8,134.1 70.9,134.1 			"/>
			<polygon class="st4" points="70.6,133.8 70.7,134.1 70.8,134.1 			"/>
			<polygon class="st4" points="70.3,132.7 70.1,133.1 70.5,132.9 			"/>
			<polygon class="st4" points="71.1,135 71.1,134.6 70.9,135 			"/>
			<polygon class="st4" points="79.3,133.3 78.8,133.2 79.3,133.5 78.8,133.5 79.2,133.6 78.6,133.9 79.3,133.8 79.8,133.3 			"/>
			<polygon class="st4" points="68.4,129.6 68.3,129.4 68.2,129.5 			"/>
			<polygon class="st4" points="79.7,134.1 79.9,133.9 80.2,133.8 80,133.6 79.4,133.9 			"/>
			<polygon class="st4" points="80.6,133.3 80.4,133.5 80,133.1 80,133.6 80.8,133.5 			"/>
			<polygon class="st4" points="69.1,125.9 68.9,124.6 68.4,124.6 68.4,126.1 68.8,126.2 			"/>
			<polygon class="st4" points="68.3,129.4 68.3,129.4 68.2,129.4 			"/>
			<polygon class="st4" points="69.7,127.1 69.4,127.3 69.7,127.5 			"/>
			<polygon class="st4" points="71.3,134.7 71.1,135.2 71.5,135.4 71.3,135.2 71.9,134.7 			"/>
			<polygon class="st4" points="69.1,130.7 69,131.1 69.4,131.1 			"/>
			<polygon class="st4" points="70.8,135.6 71.2,135.9 71.5,135.7 71.3,135.9 71.7,135.6 71.1,135.3 			"/>
			<polygon class="st4" points="69.7,132.2 69.2,131.2 69.3,131.8 68.8,131.8 69.2,132.3 69.4,131.7 69.3,132.4 			"/>
			<polygon class="st4" points="69.1,132.8 69.3,132.5 69,132.5 			"/>
			<polygon class="st4" points="72.5,135.8 73,136 72.7,135.4 			"/>
			<polygon class="st4" points="70.5,135.2 71.1,135.3 70,134.8 			"/>
			<path class="st4" d="M69.4,116.4l-0.9,3.6l-0.4,0.3l0.7,2.1l-0.3,1.6l0.4,0.5l-0.1,0.2l0.5-0.3l0.3,0.1l0.2-0.2l-0.4,0.5l0.5,0.2
				l-0.1,0.3l-0.3-0.2l0.3,0.3l-0.3-0.1l-0.1,0.9l0.3,0.3l-0.3,0.3l0.6,0.3l-0.6,0.7l0.5,0.2l-0.5,0.1v0.3l0.3-0.2l-0.2,0.9
				l-0.3-0.3l-0.4,0.1l0.3-0.1H69l0.1-0.3l-0.2,0.3l-0.3-0.2l-0.3,0.1l0.5,0.1l-0.2,0.3l-0.4,0.3l0.4-0.2l0.1,0.3l0.4-0.1l0.3,0.4
				l-0.3,0.3h0.4l-0.5,0.2l0.7-0.1l0.5,0.3l-0.3-0.1l0.3,0.3l-0.9-0.2l0.6,0.3l-0.3,0.2l0.3,0.1l-0.1,0.6l0.2-0.2l0.4,0.5l-0.5-0.1
				l0.2,0.3l0.2,0.3l-0.5-0.1l0.5,0.1l0.1,0.5l0.2-0.5l0.2,0.3l-0.4,0.2l-0.1,0.1l0.4,0.1l-0.1,0.5L71,134l-0.1-0.3l0.2,0.3
				l-0.2-0.5l0.5,0.2l-0.6-0.3l0.3-0.3l-0.1,0.3l0.5,0.2l-0.1,0.6v-0.4l-0.1,0.3l-0.1-0.3h-0.1H71h-0.2l0.1,0.7l0.5-0.3h0.9l0.2,0.5
				l-0.3,0.4l0.1-0.3l-0.4,0.1l0.8,0.4l0.1-1.1l1-0.5l0.6,0.1l-0.5-0.6h-0.4l0.4-0.1l-0.4-0.4l0.6-0.9l-0.1-0.1l-0.1-0.3l0.2,0.3
				l0.1,0.1l0.3-0.1v-0.1l0.1-0.9l1.2-1.1l-0.1-0.7l-0.7-0.1l-0.7-0.9l0.4-0.8l1.1-0.3l0.1-1.2l0.7-0.7l-0.5-0.3l0.5-0.1l0.2,0.3
				l0.4-0.3l-0.1-0.5l-0.5,0.3l-0.5-0.3l-0.1-1.3l1,0.4l1.1-0.3v-1.6l0.3,0.1l-0.3-0.6l1,0.2l0.9-0.2l1.3-0.3l0.8-0.4l0.7-1.2v-0.5
				l-0.5-0.4l0.2-0.7l-1.2-0.9l0.2-1.3l-0.1,0.9l0.5,0.5l1.4,0.5l1.7-0.2l1.5-1.6l0.4-1.3l1.2-1.4l-0.2-0.4l0.6,0.5l-1.5,1.7l1.2-1
				l0.7-1.1l0.5-0.7l0.9-0.7l0.4-1.5l-0.3-0.9l0.5-0.7l-0.3-0.2l0.5,0.1l0.7-0.8L93,106h0.9l1.1-0.8l0.7,0.2l0.5-0.3v0.3l1,0.1
				l0.1-0.5l1-0.4l-0.1-0.5l1.2-1.5l0.1-0.4l0.3-1.3l0.5-0.5l0.5-2.6c-7.1,5.1-17.9,11.9-31,17.2L69.4,116.4z M69,129.3l-0.1-0.3
				l0.3,0.1L69,129.3z M70.6,132.6l0.1,0.3l-0.3-0.5l0.9,0.1L70.6,132.6z M70.3,130.8l0.3,0.4v-0.3l0.3,0.6l-0.6-0.1
				C70.3,131.4,70.3,130.8,70.3,130.8z M69.3,124.1v-0.3l0.3,0.2L69.3,124.1z"/>
			<polygon class="st4" points="74.1,136.5 73.2,136.7 73.7,137 73.5,136.8 73.9,136.8 73.9,137 74.5,137.1 73.8,136.6 			"/>
			<polygon class="st4" points="70.6,130.9 70.6,131.2 70.3,130.8 70.3,131.3 70.9,131.5 			"/>
			<polygon class="st4" points="70.7,132.9 70.6,132.6 71.3,132.4 70.4,132.3 			"/>
			<polygon class="st4" points="69,129.3 69.1,129 68.9,128.9 			"/>
			<polygon class="st4" points="73.7,134.4 72.7,134.7 72.7,135.2 73.4,135.2 73.1,135.8 73.8,136.1 73.6,136.3 73.5,136 
				73.3,136.2 72.5,135.9 73.1,136.2 72.7,136.3 72.7,136 72,136.4 75.2,136.5 76.1,136.2 74.4,135.5 			"/>
			<polygon class="st4" points="69.3,124.1 69.5,124 69.3,123.8 			"/>
			<polygon class="st4" points="72.1,135.8 72.1,136 72.5,136 			"/>
		</g>
		<g>
			<path class="st3" d="M56.6,45.8h0.2H56.6z"/>
			<polygon class="st3" points="59.7,44.7 59.6,44.7 59.6,44.7 			"/>
			<polygon class="st3" points="59.4,44.8 59.6,44.7 59.3,44.8 			"/>
			<polygon class="st3" points="60,44.6 60.2,44.5 60.2,44.5 			"/>
			<polygon class="st3" points="56.3,45.9 56.4,45.9 56.2,46 56.3,46 			"/>
			<polygon class="st3" points="57.9,45.3 57.8,45.4 58.1,45.3 			"/>
			<polygon class="st3" points="57.1,45.7 57.1,45.7 57,45.7 			"/>
			<polygon class="st3" points="58,45.3 58.2,45.2 58.2,45.2 			"/>
			<path class="st3" d="M57.8,45.4l-0.4,0.1L57.8,45.4z"/>
			<polygon class="st3" points="44.5,52.2 44.5,52.3 44.4,52.3 			"/>
			<path class="st3" d="M58.8,45L58.8,45L58.8,45z"/>
			<polygon class="st3" points="45.3,51.7 45.5,51.6 45.4,51.6 45.2,51.8 			"/>
			<polygon class="st3" points="58.3,45.2 58.3,45.2 58.3,45.2 58.3,45.2 58.2,45.2 			"/>
			<polygon class="st3" points="58.9,45 58.8,45 58.5,45.1 			"/>
			<polygon class="st3" points="44.1,52.6 44.2,52.5 44.3,52.4 44.2,52.5 44,52.6 			"/>
			<polygon class="st3" points="68.6,42.6 68.1,42.6 68.3,42.6 			"/>
			<polygon class="st3" points="57,45.7 57.1,45.7 57.1,45.7 			"/>
			<path class="st3" d="M66.9,42.8L66.9,42.8L66.9,42.8z"/>
			<polygon class="st3" points="70.9,42.2 70.9,42.1 70.8,42.2 			"/>
			<polygon class="st3" points="68.6,42.5 68.9,42.5 68.9,42.5 			"/>
			<polygon class="st3" points="70.8,42.2 70.4,42.2 70.6,42.2 			"/>
			<polygon class="st3" points="56.9,45.7 56.9,45.7 57,45.7 			"/>
			<polygon class="st3" points="67,42.8 67.1,42.8 66.9,42.8 			"/>
			<path class="st3" d="M44.3,52.4l0.1-0.1L44.3,52.4z"/>
			<polygon class="st3" points="44.2,52.4 44.2,52.4 44.3,52.4 44.3,52.4 			"/>
			<path class="st3" d="M44.2,52.5l0.1-0.1L44.2,52.5z"/>
			<polygon class="st3" points="57.2,45.6 57.1,45.7 57.1,45.6 57.4,45.5 57.1,45.6 57,45.7 			"/>
			<polygon class="st3" points="44,52.6 43.8,52.7 43.9,52.6 			"/>
			<polygon class="st3" points="66.6,42.9 66.8,42.8 66.9,42.8 			"/>
			<polygon class="st3" points="42.5,53.8 43.1,53.3 42.7,53.6 43.7,52.8 43.7,52.8 43.2,53.2 42.9,53.4 43.2,53.2 			"/>
			<polygon class="st3" points="43.7,52.8 43.8,52.7 43.8,52.7 43.7,52.8 			"/>
			<path class="st3" d="M57.9,48.5h0.3l1.3-0.5l-0.1,0.2L60,48l0.1,0.1l1.7-0.4l-0.1,0.1l0.5-0.1l0.1,0.2L61.2,48l-0.9,0.4l-0.1-0.1
				l-1,0.7l0.5-0.1l-0.9,0.9l-0.1,0.7l0.6-0.2l0.6-0.6l0.5-0.9l0.7-0.3L61,48.8l0.7-0.5l0.9,0.1l-0.3,0.4l-0.6,0.4l0.9-0.3v0.5
				l0.5-0.3l0.7-0.7l-0.1-0.2l0.3,0.2h0.6l0.1-0.1l0.3-0.1l-0.2-0.1l-0.3-0.3l-2.5,0l0.2-0.6l-0.6,0.1L61.5,47l-1,0.1l-0.1,0.2
				l-0.3,0.1l0.2-0.2L60,47.5h-0.2l-2.5,1.1l0.9-0.2L57.9,48.5z M63.8,47.8L63.5,48h-0.8L63.8,47.8z"/>
			<polygon class="st3" points="61,46.8 60.9,46.7 60.5,46.8 60.4,46.9 60.2,47 60.5,47 			"/>
			<polygon class="st3" points="58.8,45.1 59.1,45 58.7,45.1 			"/>
			<path class="st3" d="M75.4,41.9h0.4H75.4z"/>
			<polygon class="st3" points="58.5,45.1 58.5,45.1 58.4,45.1 58.4,45.1 58.4,45.1 			"/>
			<path class="st3" d="M65.6,45.1l0.6-0.1l0.1,0.1H65.6z M68,44.1L68,44.1l-0.4,0.1l0.6-0.3L68,44.1l0.3-0.1L68,44.1z M67.7,43
				L67.7,43l0.5-0.2l0.5-0.1L67.7,43z M69.7,42.7l-0.4,0.1L69.7,42.7L69.7,42.7z M66.9,62.5l-0.1,0.3h-0.5L66.9,62.5z M64.4,59.9
				l-0.1,0.4L64.4,59.9l-0.5-0.3L64.4,59.9z M63.7,58.9l-0.3,0.5l-0.1-0.1L63.7,58.9l-0.4-0.3L63.7,58.9z M62.7,60.9l0.2-0.1
				L62.8,61L62.7,60.9L62.7,60.9L62.7,60.9L62.7,60.9l0.2-0.2L62.7,60.9L62.7,60.9z M62.4,60l0.3,0.3l-0.3,0.3L62,60.5L62.4,60z
				 M57.6,63.4l0.1-0.4H58l0.1,0.3L57.6,63.4z M62.8,65.7L62,65.8l-0.5-0.3l1.4-0.2l0.7,0.3L62.8,65.7z M64.9,63.8l-2.6,0.3l0.7-0.5
				l-0.1-0.3H62l-0.5-0.6l-1.1-0.1l-1.6-0.1l-0.3-0.1l0.5-0.1l-0.2-0.1L58,62.4l-1.3,0.8l-0.8,0.1l0.6-0.2l0.3-0.6l2.7-0.7l1,0.1
				h0.2l2.5,1l1.1,0.1l-0.1,0.3l1.5,0.2L64.9,63.8z M70.9,64.8L69,64.7l-0.5,0.4l-0.3,0.3l-0.6-0.5l-1.8,0.3l-0.5-0.3l0.3-0.3h1.8
				L67,64.2l0.1-0.3l-0.7-0.1l0.7-0.3l2.7,0.1l0.2,0.3l0.6-0.1L70.1,64l1.3,0.3L70.9,64.8z M73.6,64.9L72.5,65l-0.1-0.3l1.6-0.1
				L73.6,64.9z M77.2,46.9l-1.1-0.3l0.3-0.2v0.3h1.4L77.2,46.9z M77.9,45.6l-1.7-0.3l1.3,0.1L77.9,45.6L77.9,45.6z M78.1,66l0.3,0.3
				L78,66.5l-0.2-0.3L78.1,66z M78.6,71.6l-0.9,0.1l0.5-0.2L78,71.1l0.7-0.1L78.6,71.6z M79.3,46.9L78.7,47l0,0l0,0l-0.3,0.1
				l-0.2-0.2l0.8-0.5v0.3L78.5,47h0.2l0,0l0.4-0.3L79.3,46.9L79.3,46.9L79.3,46.9z M90.1,81.7l-0.4-0.3l0.7-0.1L90.1,81.7z
				 M84.2,46.8h-0.3v-0.3l-0.4,0.1l0.2-0.2l-0.2-0.2l-0.7,0.3h-0.5l0.8-0.3H82l0.2-0.1l-0.7,0.1l-1.1-0.1l-0.6,0.1l-0.1-0.1l0.7-0.2
				h-0.7l0.6-0.3l0.3,0.1l-0.3-0.1h0.4l0.1-0.2l0.1-0.3l0.9-0.3l0.3,0.1h-0.4L82,45l-0.5,0.4l-0.2,0.1l0.3-0.1l0.1-0.1l-0.1,0.1h0.5
				l-0.4,0.2h0.6l-0.1,0.2l0.5-0.2l0.1,0.1h0.7L83.1,46l0.8-0.1L83.2,46l0.3,0.1l-0.2,0.1l0.3,0.1l0.3-0.2l-0.1,0.2l0.3-0.1l0.2,0.1
				L84.2,46.8z M82,41.8L82,41.8l-0.5-0.1h0.1h-0.1h0.1l0.7,0.1h0.1h0.1h0.3l0.2,0.1h0.5l0.2,0.1h0.5l0.2,0.1h0.4l0.1,0.1h0.6
				l0.1,0.1h0.3H86l0.2,0.1h0.2l0,0h0.1h0.2h0.2l0.1,0.1h0.2l0.2,0.1h0.3l0.2,0.1H88l0.2,0.1h0.1h0.1h0.1h0.1h0.2l0.3,0.1h0.2
				l0.2,0.1h-0.2l-0.1-0.1H89h-0.1l0,0l0,0l-0.2-0.1l0,0l0,0l0,0l-0.4-0.1h-0.1h-0.3l0.1-0.1h0l0.2,0.1l-0.7-0.1l0.1,0.1l-0.4-0.1
				l0.5,0.1l0.2,0.1l-0.5-0.1l0.5,0.1h-0.1l-0.4-0.1l0.4,0.1l-0.4-0.1l0.3,0.1l-0.6-0.1l0.6,0.1l-0.5-0.1l0.6,0.1h-0.3l0.3,0.1h-0.3
				l0.4,0.1l-0.5-0.1l0.5,0.1l-0.6-0.1L87,43v-0.1h-0.3l0.1-0.1h-0.2l-0.1-0.1h-0.2H86l0.4-0.1h-1.1l-0.2-0.1l-0.6-0.1h-0.1l0.1-0.1
				h-0.4l0.1-0.1l-0.5-0.1l0.2-0.1l-0.3,0.1l0.1-0.1l-0.5-0.1h0.3L83,41.8h0.2h0.3l-0.7-0.1h-0.1l-0.1-0.1l-0.3-0.1l0.9,0.1
				l-0.3-0.1h-0.3l-0.7-0.1h0.4l-0.7-0.1l1.3,0.1L82,41.8z M70.6,42.5L70.6,42.5l0.3-0.1L70.6,42.5z M73.3,41.9h0.3h0.1H73.3h0.3
				H73.3L73.3,41.9z M72.5,42L72.5,42l0.2-0.1L72.5,42l0.5-0.1L72.7,42L72,42.1L72.5,42z M72.1,42.1l1-0.1l-0.3-0.1l0.7-0.1l0.5-0.1
				h-0.2l0.2-0.1h1l0.1-0.1h1.1h0.1h0.1h0.1H77h0.3h0.2h0.1l-0.3,0.1l0.4-0.1v0.1l0.3-0.1l0.3,0.1h-0.1H78h-0.3h-0.1l0.1,0.1
				l-0.3-0.1l-0.1,0.1l-0.8-0.1l0.5-0.1l-0.7,0.1l0.2-0.1l-0.3,0.1l-0.3-0.1h-0.5l0.3,0.1h-0.1l0.2,0.1l0.1,0.1l0.3-0.1l0.3,0.1h0.1
				v0.1l-0.3-0.1l0.1,0.1l-1.3-0.1l0.1,0.1h-0.5l1.2,0.1h-2.5l-0.2-0.1h-0.1L73,41.8l-0.2,0.1l-0.3-0.1l-0.1,0.1L70.9,42l0.6-0.1
				L72.1,42.1z M37.4,63.2l0.2-0.2L37.4,63.2L37.4,63.2z M48.4,85H48l0.4-0.3l-0.5-0.5l0.2-0.2l0.5,0.8L48.4,85z"/>
			<polygon class="st3" points="66.5,48.7 67.1,48.5 67.1,48.2 67.6,48 66.3,48.3 66.8,48.3 66.5,48.4 65.1,48.6 64.5,48.9 			"/>
			<polygon class="st3" points="63.8,49.3 64.1,49.3 62.9,49.4 61.8,49.8 61.9,49.7 62.3,49.6 62.2,49.4 61.4,50 62.6,50 64.1,49.4 
				64.8,49.2 65.1,49 64.2,49.2 			"/>
			<polygon class="st3" points="58.7,45 58.6,45.1 58.6,45.1 			"/>
			<polygon class="st3" points="48.1,50 47.9,50.1 48,50 			"/>
			<path class="st3" d="M47.8,50.1v0.1V50.1z"/>
			<polygon class="st3" points="58.7,45.1 58.2,45.3 58.4,45.2 			"/>
			<polygon class="st3" points="36.8,59.5 37,59.2 36.8,59.4 			"/>
			<polygon class="st3" points="58,45.3 57.6,45.5 57.9,45.4 			"/>
			<polygon class="st3" points="47.9,50.1 47.8,50.1 47.8,50.1 			"/>
			<path class="st3" d="M89,42.6l-0.2-0.1L89,42.6z"/>
			<polygon class="st3" points="64.1,43.5 64.5,43.5 64.2,43.5 			"/>
			<polygon class="st3" points="64.4,43.4 64.2,43.5 64.7,43.4 			"/>
			<polygon class="st3" points="89.1,42.6 89.2,42.6 89.3,42.6 89.2,42.6 89.2,42.6 			"/>
			<polygon class="st3" points="60.5,44.5 60,44.6 60.3,44.5 			"/>
			<polygon class="st3" points="83,42 83.2,42.1 83.1,42.1 83.7,42.1 			"/>
			<polygon class="st3" points="73.6,42.9 74,42.9 73.8,42.9 			"/>
			<polygon class="st3" points="66.6,42.9 66.7,42.9 66.8,42.8 			"/>
			<polygon class="st3" points="82.2,41.8 82.2,41.8 82.8,41.9 82.3,41.8 			"/>
			<path class="st3" d="M87.2,42.9l0.1,0.1L87.2,42.9z"/>
			<polygon class="st3" points="81.7,41.7 81.6,41.7 82,41.8 82.2,41.8 			"/>
			<polygon class="st3" points="87.1,42.9 87.2,43 87.2,42.9 			"/>
			<polygon class="st3" points="63.4,43.6 63.5,43.6 63.5,43.6 			"/>
			<polygon class="st3" points="83.4,42.1 83.5,42.1 83.5,42.1 			"/>
			<polygon class="st3" points="83.1,42.1 82.8,42.1 83.4,42.1 			"/>
			<polygon class="st3" points="57,45.7 56.9,45.7 57,45.7 57.1,45.7 57.2,45.6 			"/>
			<polygon class="st3" points="62.9,43.8 63,43.7 63,43.7 			"/>
			<polygon class="st3" points="62.6,43.8 62.6,43.8 62.8,43.8 62.8,43.8 62.8,43.8 62.9,43.7 62.8,43.7 63.1,43.7 62.4,43.9 			"/>
			<polygon class="st3" points="60.3,44.5 60.2,44.5 60.2,44.5 60.8,44.3 			"/>
			<polygon class="st3" points="61.2,44.2 60.8,44.3 60.8,44.3 			"/>
			<polygon class="st3" points="57,45.7 57.1,45.6 56.9,45.7 			"/>
			<polygon class="st3" points="59,85.2 59.1,85.1 59,85.2 58.8,85.2 58.9,85.4 			"/>
			<polygon class="st3" points="43,53.3 43,53.3 42.8,53.4 			"/>
			<polygon class="st3" points="56.8,45.7 56.9,45.7 56.9,45.7 			"/>
			<polygon class="st3" points="66.8,42.8 66.6,42.9 66.9,42.8 			"/>
			<polygon class="st3" points="45.2,51.8 45.4,51.6 45.7,51.4 			"/>
			<polygon class="st3" points="44.3,52.4 44.3,52.4 44.4,52.3 44.5,52.3 44.3,52.3 			"/>
			<polygon class="st3" points="56.9,45.7 57,45.7 57,45.7 			"/>
			<polygon class="st3" points="48.5,49.7 48.3,49.8 48.4,49.8 			"/>
			<path class="st3" d="M57,45.7L57,45.7L57,45.7z"/>
			<polygon class="st3" points="73.7,41.9 73.6,41.9 73.2,41.9 			"/>
			<polygon class="st3" points="81.5,41.7 81.9,41.8 82,41.8 81.6,41.7 			"/>
			<polygon class="st3" points="81.6,41.7 81.6,41.7 81.7,41.7 			"/>
			<polygon class="st3" points="89.3,42.7 89.2,42.6 89.1,42.6 			"/>
			<polygon class="st3" points="88.9,42.5 88.8,42.5 89,42.6 			"/>
			<path class="st3" d="M89,42.6L89,42.6L89,42.6z"/>
			<polygon class="st3" points="89.1,42.6 89.2,42.6 89.2,42.6 89,42.6 			"/>
			<polygon class="st3" points="88.5,42.5 88.6,42.5 89,42.6 88.8,42.5 88.7,42.5 88.5,42.5 88.3,42.5 88.3,42.5 			"/>
			<polygon class="st3" points="89.2,42.6 89.3,42.6 89.3,42.7 89.5,42.7 89.7,42.7 89.8,42.7 89.6,42.7 89.5,42.7 89.2,42.6 
				89.3,42.6 			"/>
			<path class="st3" d="M78.7,47L78.7,47L78.7,47z"/>
			<polygon class="st3" points="78.1,71.5 77.6,71.7 78.6,71.6 78.6,71 77.9,71.1 			"/>
			<polygon class="st3" points="84.1,46.4 84.2,46.2 83.9,46.4 83.5,46.2 83.7,46.2 83.5,46.1 84.1,46 83.3,46 83.7,45.7 83.1,45.7 
				83,45.5 82.5,45.8 82.5,45.5 81.9,45.5 82.3,45.3 81.8,45.3 81.8,45.3 81.7,45.3 81.4,45.5 81.6,45.3 82,44.9 81.8,44.9 
				82.2,44.9 81.9,44.8 81,45.1 80.9,45.3 80.8,45.5 80.4,45.5 80.7,45.7 80.4,45.6 79.8,45.9 80.4,45.9 79.7,46.1 79.8,46.2 
				80.4,46.2 81.5,46.3 82.2,46.2 82,46.3 83,46.3 82.2,46.6 82.7,46.6 83.5,46.2 83.7,46.4 83.5,46.6 83.9,46.5 83.9,46.8 
				84.2,46.8 84.5,46.4 84.3,46.3 			"/>
			<polygon class="st3" points="78.4,66.3 78.1,66 77.8,66.2 78,66.5 			"/>
			<polygon class="st3" points="90.1,81.7 90.4,81.3 89.7,81.4 			"/>
			<polygon class="st3" points="79,46.8 79,46.4 78.2,46.9 78.4,47.1 78.7,47 78.4,47 			"/>
			<polygon class="st3" points="79.1,46.8 78.7,47 79.3,46.9 79.4,46.9 79.3,46.8 			"/>
			<polygon class="st3" points="37.4,63.2 37.4,63.3 37.6,63 			"/>
			<polygon class="st3" points="76.2,45.3 77.9,45.6 78,45.5 77.4,45.4 			"/>
			<polygon class="st3" points="72.5,42.2 72.5,42.1 72.9,42.2 73.1,42.1 73.2,42.2 73.4,42.2 73.6,42.3 76.1,42.3 74.9,42.1 
				75.4,42.1 75.4,42.1 76.7,42.2 76.6,42.1 76.9,42.1 76.9,42 76.8,42 76.5,41.9 76.2,42 76,41.9 75.8,41.9 75.4,41.9 75.4,41.9 
				75.8,41.9 76,41.9 75.7,41.8 76.2,41.8 76.4,41.9 76.7,41.8 76.5,41.9 77.2,41.8 76.6,41.9 77.4,41.9 77.5,41.8 77.8,41.9 
				77.8,41.8 77.8,41.8 77.8,41.7 77.4,41.8 77.7,41.7 77.6,41.7 77.4,41.7 77.1,41.7 76.6,41.7 76.5,41.7 76.4,41.7 76.3,41.7 
				75.2,41.7 75.1,41.8 74.1,41.8 73.9,41.9 74.1,41.9 73.6,41.9 72.9,42 73.2,42.1 72.1,42.1 71.5,42.2 70.9,42.3 			"/>
			<polygon class="st3" points="78.4,41.8 78.4,41.8 78.2,41.7 77.8,41.8 78.2,41.8 			"/>
			<path class="st3" d="M66.9,42.8L66.9,42.8L66.9,42.8z"/>
			<polygon class="st3" points="73.1,41.9 72.5,42 72.1,42.1 72.8,42 			"/>
			<path class="st3" d="M102.9,88l-1.3-1.5l-1.5-1.1l-2.2-0.3l-1.1-0.7l-1.5,0.9l0.1-0.7l0.4-0.3l-0.7,0.1l0.5-0.4l-0.3-0.7
				l-0.5,0.4l-0.1-0.5l-0.2,0.2l0.1-0.2l-0.3,0.1L94,82.9l-0.1,0.3l-0.1-0.4L93.7,83l-1-0.6l-0.1,0.2l-0.7-0.2l-0.5,0.7l0.4,0.1
				l-0.3,0.1L91.2,83l-0.9,0.9l0.3-0.7L91,83l0.5-1.1l-2.1-0.3l-0.5,0.9V82l-0.5,0.4v-0.5l-0.5,0.5l0.4-0.9l1.5-1.2h-0.2l0.2-0.5
				l-0.9-0.5l-0.6-2.1L88,77l-0.1,0.3l-0.7-0.9l-2-1l-3.1-0.1l-1.3-1l-0.3,0.5l0.2-0.9l-0.6-0.6l-0.9-0.5l-0.3-0.1h-0.7V72l-0.8-0.5
				l-0.7,0.1l-0.1-0.2l-0.4-0.3l1.1-0.3l-2.5,0.1l0.6,0.2l-1.5,0.4L72.7,71l-1.9,0.3l-0.3-0.7l-1.2-0.1l-0.4-0.7l-0.2,0.5l0.4-0.1
				v0.2l-0.3-0.1L67.3,71l0.3,0.7l0.2,0.2l-0.1,0.4L67,72.6l-0.4-0.7l0.1-0.1l0.5-0.7l-0.4-0.8l0.9-0.5l-0.6-0.3L66,71l-0.9,0.1
				L65,71.4l-0.5-0.1L64,71.6l-0.5,0.7v0.1l0.1,0.5l-1.3,0.9l0.1,0.6l-1.1-1l-1.1-0.3h-0.6l-0.4,0.3l-1.1,0.7l-0.8-0.3l0.1,0.2H57
				l-0.6-0.8l-0.8-1.1l0.9-2.7l-0.1-0.8L55,68.2L52.1,69l-0.7-0.1l0.8-1l0.3-1.2h-0.3l0.4-0.5l0.1,0.5l0.6-1.2L53,65.4l1.1-1.5H53
				l-1.9,0.8l-0.7,1.4L49.5,67l-0.7-0.1L47.1,68l-0.5-0.5L46,67.7l-0.8-2.3V65l0.5-1.5l0.2-0.6l0.4-0.2L46.1,63l0.5-0.8l0.1-0.9
				l0.4-0.7l0.7-0.3l0-0.3l0.5-0.1l-0.2,0.2l1-0.7l0.3-0.5h0.3l-0.3,0.2l0.8-0.3v-0.1l1.1-0.1l0.5-0.3l0.5,0.4l0.4-0.3l0.3,0.1v-0.3
				h0.3l0.1,0.3l0.4-0.3l-0.5-0.1l0.5-0.3h-0.4H53l1.9-0.4l0.2-0.3l0.1,0.2L55,57.5l0.9-0.4l-0.2,0.2l0.9-0.2l-0.3,0.1l0.7-0.1v0.2
				v0.2l0.8-0.3l0.3-0.1l0.3,0.1h0.1l0.7,0.6l-0.4,0.7l0.4-0.1l-0.3,0.4l0.2,0.4l0.3-0.1v0.7L60,60l-0.1,0.3l0.5-0.1v0.1L61,59
				l-0.5-2.1l-0.1-0.8l1-0.7l-0.1-0.2l0.1,0.1l0.7-0.3l1.2-0.8l2.2-0.9L65,53.2l0.5-0.1L65.1,53l0.7,0.1l0.4-0.3l-0.1-0.2l-0.2,0.3
				l0.1-0.3l-0.6,0.1l0.5-0.3l0.3,0.1v-0.3l0.2,0.5L66.2,52l-0.7-0.1h0.4l-0.1-0.1l0.3-0.2H66l0.1-0.2l-0.8-0.1l0.2-0.2l0.6,0.3
				L66,50.7l0.7-0.2l-0.5,0.4l0.5,0.5l-0.4,0.5l0.9-0.7L67,50.5l0.4,0.4l0.7-0.5V50l0.2-0.1l0,0h0.1h-0.1l0.4-0.2l1.7-0.3l0.1-0.3
				l0.1,0.2l0.9-0.1V49l-0.3,0.2l-0.5-0.3l0.7-0.7l0.4-0.1V48l0.4,0.1l0.4-0.3l-0.1,0.1l0.5-0.1l0.1,0.1l0.9-0.2l-0.1-0.2l0.5,0.1
				l1.6-0.4l-0.5,0.3l1.2-0.1l-0.5,0.2l-0.3-0.1l-1.2,0.4l-0.1,0.3l0.5,0.2l0.9-0.5h0.5v-0.1l1.8-0.2l0.2-0.1l-0.7-0.2l-1,0.1
				l-1-0.3l-0.1-0.3h-0.4l0.5-0.3l-0.6,0.1l-0.1-0.1h-0.7l1.1-0.1l0.7-0.2L76.1,46L75,45.9l-1.4,0.3l-2.3,0.9l1-0.5v-0.1l1.9-0.5
				l0.5-0.3l0.2-0.1l4.3-0.1h0.1l0.8-0.3l1.1-0.1l0.7-0.2l-0.4-0.1h0.4l-0.6-0.1h0.5l-0.3-0.1l0.2-0.1l-0.5-0.2l-0.5,0.1l0.1-0.1
				l-0.7-0.1L79,44.4l1-0.2l-0.7,0.1l1.3-0.1l-0.5-0.1l0.2-0.1h-0.7v-0.1L79.3,44l0.1-0.1L79,44l0.3-0.1H79L78.6,44l0.2-0.2h-0.2
				l0.1-0.1H78l0.3-0.1h-0.1l-0.4-0.1h0.3l-0.5-0.1h0.5l0.2-0.1l-0.7-0.1h0.3l-0.4-0.1l0.1-0.1l-0.5,0.1l0.5-0.1L77,43.1l0.5-0.1
				l-0.1-0.1L76.9,43l0.4-0.1l-0.7-0.1l0.2-0.1h-0.3l-0.4,0.1l0.3,0.1H76l0.2,0.1l-0.4,0.1v0.1l-0.2-0.1l-0.7,0.2l-0.1-0.1l-0.5,0.1
				l0.3-0.1H74h-0.4l0.3-0.1l0.1,0.1l0.2-0.1h-0.3L74,43h-0.6l0.7-0.1l0.2-0.1h-1.1l0.1-0.1l-0.4,0.1l-0.5-0.1l-0.5,0.1h-1.2
				l-0.5,0.1l0.1,0.1l-0.5,0.1h0.3V43L69,43.3l0.7,0.1l-0.1,0.4h0.1l0.1,0.1h-0.3l-0.9,0.3l-1.4,0.3l0.3,0.1l-0.1,0.6l-0.5,0.2v0.1
				l-0.1-0.1l-0.5,0.3h-0.1h-0.3l0.1-0.1l-0.7-0.3l0.7-0.7l-1.5,0.2l-2.1-0.1L61.3,45l0.4-0.2l0.3-0.3l-0.4,0.1l-0.3,0.1v-0.1
				l0.9-0.3l1.3-0.4h-0.1l1-0.3h-0.1l0.2-0.1l-0.3,0.1l0.1-0.1l0.2-0.1l0.3-0.1l-0.5,0.1h0.3l0.2-0.1l0.5-0.1h-0.2l-0.3,0.1l0.2-0.1
				l0.5-0.1l0.6-0.2l0.7-0.1l0.9-0.2l-0.8,0.1h-0.1l0.2-0.1h-0.3L66,42.8l-0.2,0.1h-0.1L65.2,43h-0.1L65,43.1l-0.7,0.1l-0.2,0.1H64
				l-0.1,0.1l0,0l0,0h-0.1h-0.1h-0.2l0,0l0,0l-0.2,0.1l0,0h0.2l0.3-0.1l0,0h0.1l0,0l-0.3,0.1h-0.1l0,0l0,0l-0.3,0.1l0,0h-0.1H63l0,0
				l-0.2,0.1L62.1,44l-0.3,0.1l0.3-0.1h0.1l0.1-0.1L61.8,44l-0.1,0.1l-0.3,0.1l0,0l0,0h-0.1l-0.2,0.1l-0.1,0l0,0h-0.1l0,0h-0.1h-0.1
				l0,0l-0.2,0.1l-0.2,0.1l0,0L60,44.6l0.5-0.1l-0.2,0.1H60l0.1-0.1l-0.9,0.3l0.3-0.1h0.1h-0.1l0,0l-0.1,0.1h-0.1h-0.1l-0.1,0.1H59
				L58.9,45l0,0H59h-0.1l0,0l0,0H59l-0.4,0.1L59,45l0,0l0,0l0.1-0.1l-0.6,0.2h-0.1l0,0h-0.1h0.1l0,0h0.1l0,0h-0.1l0,0L58,45.3h0.1
				l0.2-0.1l0,0l-0.4,0.2h-0.1l0,0h-0.1h0.1l-0.7,0.3l0.3-0.1l0.4-0.2l0,0l0.1-0.1l0.2-0.1l-0.3,0.1l-0.4,0.1l-0.2,0.1l0,0l0,0l0,0
				h-0.1h-0.2h-0.1l-0.2,0.1l0,0l0.2-0.1l-0.2,0.1h-0.1L56.2,46l0.2-0.1h-0.1l0,0h-0.1L56.1,46L56,46.1l0,0l0.9-0.3l-1.3,0.5
				l-0.3,0.1l0.1-0.1l0,0l0.1-0.1h-0.1L55,46.5l0,0l-0.2,0.1l-0.3,0.1h-0.1h-0.1L54,46.9L53.9,47l-0.3,0.1h-0.1l-0.1,0.1l-0.1,0.1
				l-0.1,0.1h-0.1l-0.5,0.3l-0.1,0.1l-0.1,0.1L52.1,48H52l-0.3,0l0,0l-0.3,0.1h-0.1l-0.1,0.1l-0.1,0.1l-0.3,0.1l-0.1,0.1h-0.1
				l-0.1,0.1l-0.1,0.1l-0.1,0.1l-0.1,0.1L50.1,49L50,48.9L49.9,49h-0.1h-0.1l-0.1,0.1l-0.3,0.1L49,49.3l0,0.1l-0.1,0.1h-0.1l0,0
				h-0.1l-0.1,0.1l-0.1,0.1l-0.1,0.1h-0.1h-0.1l0,0L47.9,50l-0.3,0.1l0,0l-0.1,0.1l-0.2,0.1L47,50.4l-0.3,0.2l-0.1,0.1L46.1,51
				l0.1-0.1l-0.4,0.3l-0.1,0.1l-0.3,0.2l0.1-0.1l-0.2,0.1l-0.1,0.1l0,0L45,51.9l-0.3,0.2l0.2-0.2L44.8,52l-0.2,0.1l0,0l0,0l-0.1,0.1
				h-0.1l0,0l-0.1,0.1l-0.1,0.1l-0.1,0.1h0.1l-0.1,0.1L44,52.7l0-0.1l0.2-0.2l0,0l0.1-0.1h-0.1l0,0l0,0l0.1-0.1l-0.2,0.1L44,52.6
				l-0.2,0.1l0.2-0.1l0,0l-0.1,0.1l0,0h-0.1h0.1l0,0l0,0l0,0l0,0l-0.1,0.1l-0.1,0.1L43.4,53l0,0l0,0l0,0L43,53.2h0.1L43,53.3
				l0.3-0.2l-0.4,0.3l0.3-0.2l0.4-0.3l0,0l-1,0.8l0.4-0.3l-0.6,0.5l0.7-0.5l-0.2,0.1l0,0l-0.2,0.1l-0.8,0.7l0.1-0.1l-0.6,0.5l-2.4,2
				l-0.7,0.8l-0.8,0.7L37,59l-0.3,0.5h0.1l-0.3,0.4l-0.4,1l-0.3,0.4l0.2-0.1l0.5-0.1l0.1,0.3l-0.7,2l-0.1,0.1l0.4,0.5l-0.4,0.5
				l0.1,0.1l-0.6,0.2l0.4,0.5l0.4-0.3l0.2,0.5l-0.4,1l0.7,0.5v0.5l0.5-0.4v-0.6h-0.4L37,65l-0.3-0.7l0.2-0.5L36.6,63l0.6-1.3H38
				l-0.3,0.8l-0.1,0.7l0.2,0.5l0.3-0.1l-0.2,0.5l0.5,0.4L38,65l0.7,0.2l-0.1,0.3l0.8,1l0.1,0.9l-0.4,0.7l0.1,0.1l-0.3,0.3v0.3l1.1,1
				l1.1-0.1l0.5,0.4l0.7,0.1l2.5,0.3l1.9-0.9l2.3,1.3l2.5,0.3l-0.2-0.1l1.2-0.3v0.4l-0.3,0.1l1.7,1.3l-0.3,0.2l0.3,0.1l-0.1,0.7v0.1
				l0.5,0.3l0.3-0.3l-0.1-0.1l-0.2-0.2l0.4,0.2h0.1l1,0.7v0.6H56l-0.1-0.3l0.5,0.6l0.1-0.3l0.9-0.1l0.2,0.5l0.5-0.3l0.1,0.7l0.5-0.1
				l0.5-0.3l-0.5-0.6l0.5-0.3l0.9-0.6l0.6,0.6l0.4-0.1l-0.4,0.5l1.1,1.2l-0.3,2.3l0.5,0.2l-0.1,0.3l-0.6,1l-0.8,0.3v0.7L60,80.9
				l0.1,0.5L59,81.6l-0.1,0.1L59,82l0.1,0.2L59,82.3l-0.5,0.6l0.2,0.2l-0.6,0.5v1.3l0.7,0.3l0.2-0.4l0.1-0.1l0.2,0.3L59,85.8
				l-1.2,1.1l0.5,1.3L58,88.6l1.1,0.6l1.1,1.4l0.9,1.7l0.6,1.3l1.5,2.1l-0.1,0.5l0.5,0.7l0.8,0.7l3.7,1.7l1.2,1.1l0.3,1.7l0.1,1.5
				l-0.4,2.2l0.1,0.7c23.1-8.3,32.1-16,34.4-18.2L102.9,88z M74.1,44.2L74.1,44.2L74.1,44.2z M71.2,46.8L71.2,46.8L71.2,46.8z
				 M64.8,49.2l-0.7,0.3L62.6,50h-1.2l0.8-0.6l0.1,0.1l-0.4,0.1l-0.1,0.1l1.1-0.4l1.1-0.1h-0.3l0.4-0.1l0.9-0.2L64.8,49.2z
				 M66.5,48.4l0.3-0.1h-0.5l1.3-0.3l-0.5,0.2v0.3l-0.6,0.2l-2.1,0.2l0.6-0.3L66.5,48.4z M60.4,46.9L60.4,46.9l0.5-0.2l0.1,0.1
				L60.4,46.9L60.2,47L60.4,46.9z M59.1,45l-0.3,0.1h-0.1L59.1,45z M58.7,45L58.7,45L58.7,45L58.7,45z M58.4,45.1L58.4,45.1
				L58.4,45.1L58.4,45.1L58.4,45.1L58.4,45.1z M58.7,45.1l-0.3,0.1l-0.2,0.1L58.7,45.1z M58,45.3L58,45.3l-0.4,0.2L58,45.3z
				 M47.8,50.1L47.8,50.1L47.8,50.1L47.8,50.1l0.3-0.2L48,50L47.8,50.1L47.8,50.1L47.8,50.1L47.8,50.1L47.8,50.1z M36.8,59.5
				L36.8,59.5l0.3-0.3L36.8,59.5z"/>
			<polygon class="st3" points="63.8,47.8 62.7,48 63.5,48 			"/>
			<polygon class="st3" points="70.6,42.5 70.9,42.5 70.5,42.5 			"/>
			<polygon class="st3" points="82,41.8 82.8,41.9 82.2,41.8 			"/>
			<polygon class="st3" points="82.2,41.9 81.8,41.9 82.5,41.9 82.8,41.9 83.1,42 82.2,41.9 82.5,42 82.7,42.1 82.8,42.1 83.1,42.1 
				83.2,42.1 83,42 83.7,42.1 83.1,42.1 83.4,42.1 83.5,42.1 83.5,42.1 83.2,42.1 83,42.1 83.5,42.2 83.2,42.2 83.7,42.3 83.7,42.3 
				83.9,42.3 83.7,42.3 84.3,42.4 84.1,42.5 84.5,42.5 84.4,42.5 84.5,42.5 85.1,42.6 85.3,42.7 86.5,42.7 86.1,42.8 86.4,42.8 
				86.6,42.8 86.7,42.9 86.9,42.9 86.7,42.9 87,42.9 87,43 87.2,43 87.1,42.9 87.2,42.9 87.2,42.9 87.3,43 87.8,43 87.4,42.9 
				87.7,42.9 87.4,42.8 87.7,42.8 87.1,42.7 87.6,42.7 87,42.6 87.6,42.7 87.3,42.6 87.7,42.7 87.3,42.5 87.7,42.6 87.9,42.6 
				87.4,42.5 87.9,42.6 87.7,42.5 87.2,42.4 87.6,42.5 87.5,42.4 88.2,42.5 88,42.5 88.3,42.5 88.1,42.4 87.8,42.4 87.6,42.3 
				87.4,42.3 87.3,42.3 87.1,42.3 86.9,42.3 86.8,42.2 86.7,42.2 86.5,42.2 86.3,42.1 86.3,42.1 85.9,42.1 85.8,42.1 85.2,42.1 
				85.1,42 84.7,42 84.5,41.9 83.9,41.9 83.7,41.9 83.2,41.9 83,41.8 82.7,41.8 82.5,41.8 82.5,41.8 81.7,41.7 82.2,41.8 82.2,41.8 
				82.3,41.8 82.8,41.9 81.4,41.8 			"/>
			<polygon class="st3" points="72.6,41.9 72.5,42 72.8,41.9 			"/>
			<polygon class="st3" points="87.2,43 87.8,43.1 87.3,43 87.2,42.9 			"/>
			<polygon class="st3" points="73.3,41.9 73.2,41.9 73.6,41.9 			"/>
			<polygon class="st3" points="82.8,42.1 83.5,42.1 83.4,42.1 			"/>
			<polygon class="st3" points="47.9,84.1 48.4,84.7 48,85 48.4,85 48.7,84.8 48.1,83.9 			"/>
			<polygon class="st3" points="68.3,42.6 68.1,42.6 68.2,42.6 67.7,42.7 67.8,42.6 67.5,42.7 67.5,42.7 67.3,42.7 67.1,42.7 
				67.1,42.8 67.1,42.8 67,42.8 66.9,42.8 66.8,42.8 66.7,42.9 67.4,42.7 			"/>
			<polygon class="st3" points="67.1,42.8 66.9,42.8 66.9,42.8 			"/>
			<polygon class="st3" points="68.3,42.6 67.4,42.9 66.7,43 67.5,42.9 67.4,42.9 68.7,42.6 68.8,42.7 69.3,42.6 69.9,42.5 
				69.6,42.5 69.1,42.6 69.3,42.5 68.9,42.5 68.6,42.5 68.9,42.5 68.9,42.5 69.2,42.5 69.1,42.5 68.9,42.5 69.4,42.4 69.8,42.3 
				69.5,42.3 69.1,42.4 68.6,42.5 68.1,42.6 68.6,42.6 			"/>
			<polygon class="st3" points="65.6,45.1 66.3,45.1 66.2,45 			"/>
			<polygon class="st3" points="68,44.1 68.3,43.9 68.1,44 			"/>
			<polygon class="st3" points="67.6,44.1 68.1,44 68.2,43.9 			"/>
			<polygon class="st3" points="70.4,42.2 69.9,42.3 69.8,42.3 70.6,42.2 			"/>
			<polygon class="st3" points="69.7,49.4 68.4,49.7 69.4,49.6 			"/>
			<polygon class="st3" points="70.9,42.1 70.4,42.2 70.8,42.2 			"/>
			<polygon class="st3" points="71,42.1 70.9,42.1 70.9,42.2 			"/>
			<polygon class="st3" points="67.8,42.6 67.8,42.6 68.2,42.5 			"/>
			<polygon class="st3" points="68.7,42.5 68.3,42.5 68.2,42.6 68.5,42.5 			"/>
			<polygon class="st3" points="71.1,42.1 70.8,42.2 70.8,42.2 			"/>
			<polygon class="st3" points="70.6,42.2 70.8,42.2 70.9,42.2 70.8,42.2 			"/>
			<polygon class="st3" points="67.7,42.9 67.7,43 68.8,42.7 68.3,42.8 			"/>
			<polygon class="st3" points="61.5,65.4 62,65.8 62.8,65.7 63.6,65.6 62.9,65.2 			"/>
			<polygon class="st3" points="57.6,63 57.6,63.4 58,63.3 57.9,63 			"/>
			<polygon class="st3" points="76.4,46.4 76.1,46.6 77.2,46.9 77.8,46.7 76.4,46.7 			"/>
			<polygon class="st3" points="64.3,63.3 64.3,62.9 63.2,62.9 60.7,61.9 60.5,61.9 59.5,61.8 56.8,62.5 56.5,63.1 55.9,63.3 
				56.7,63.2 58,62.4 58.8,62.3 59,62.4 58.5,62.5 58.8,62.7 60.4,62.7 61.5,62.8 62,63.4 62.8,63.4 62.9,63.7 62.2,64.1 64.9,63.8 
				65.7,63.5 			"/>
			<polygon class="st3" points="72.4,64.9 73.6,64.9 74,64.5 72.3,64.6 			"/>
			<polygon class="st3" points="70.5,63.9 69.9,64 69.7,63.7 67,63.6 66.3,63.9 67.1,64 66.9,64.3 67.3,64.7 65.5,64.7 65.3,65 
				65.8,65.3 67.6,64.9 68.2,65.5 68.5,65.1 69,64.7 70.9,64.8 71.3,64.5 70,64.1 			"/>
			<polygon class="st3" points="62.6,60.7 62.7,60.8 62.8,60.6 			"/>
			<polygon class="st3" points="62.8,60.3 62.4,60 62.1,60.5 62.5,60.6 			"/>
			<polygon class="st3" points="66.9,62.5 66.2,62.8 66.7,62.8 			"/>
			<polygon class="st3" points="64.3,60.3 64.4,59.9 63.9,59.6 64.3,59.9 			"/>
			<polygon class="st3" points="69.7,42.7 69.7,42.7 69.3,42.8 			"/>
			<polygon class="st3" points="63.3,59.3 63.5,59.4 63.7,58.9 63.3,58.7 63.6,58.9 			"/>
			<polygon class="st3" points="62.9,60.8 62.7,60.9 62.8,61 			"/>
			<polygon class="st3" points="62.7,60.9 62.7,60.8 62.6,60.9 			"/>
		</g>
		<path class="st2" d="M133.9,89.3"/>
		<path id="XMLID_00000107561989270676728960000011415957187071553665_" class="st4" d="M165.4,31.5l-11.9,7c-1.7,1-3.7,1.4-5.6,1.1
			c-2.4-0.3-6-0.3-8.9,1.5c-4.6,3-7.3,11.3,1,20.4c0.2,0.2,0.5,0.1,0.6-0.1c0.4-1.8,2.1-7,9.4-8.5c0.1,0,0.2-0.1,0.2-0.2l3.8-9.1
			c0.2-0.5,0.6-1,1-1.4L165.8,32C166.1,31.7,165.7,31.3,165.4,31.5z"/>
		<path id="XMLID_00000042716477652535868000000016030197114745236659_" class="st2" d="M150.4,55.6c0-0.3-0.2-0.6-0.5-0.5
			c-1.5,0.3-5.6,1.7-8.5,9.1c-4.9,12.5-18.1,17.4-24.7,19.2c-0.5,0.1-0.4,0.9,0.1,0.9c6.4-0.1,21-0.3,27.4-7.9
			C150.8,68.5,150.1,58,150.4,55.6z"/>
		<path id="XMLID_00000027594991860954873910000012163251230634421149_" class="st5" d="M135.9,68.2c1.5-4.6,0.7-9.6-2.2-13.4
			c-1.7-2.3-4-4.4-6.8-5.4c-6.6-2.4-27.1-6.5-35.9-15c-0.4-0.4-1,0.1-0.8,0.6c2.3,3.9,7.7,10.4,19.1,14c17.1,5.3,18.9,7.1,18.9,7.1
			s-12.6-3.6-17.4-5.4c-4.3-1.6-12.4-4.2-16.4-7.7c-0.4-0.3-1,0.1-0.8,0.5c1.1,2.8,4.3,7.9,13.4,11c13.1,4.4,21.9,5.7,21.9,5.7
			s-19.8-1.7-29-7.7c-0.4-0.3-0.9,0.2-0.7,0.6c0.9,2.1,3.4,5.9,10.2,7.9c9.5,2.7,21.5,2,21.5,2s-10.7,1.9-19.4-0.2
			c-0.5-0.1-0.8,0.5-0.4,0.8c1.9,1.7,5.7,4.3,10.3,4.1C128.1,67.4,134.5,66.4,135.9,68.2L135.9,68.2z"/>
		<g id="XMLID_00000047017731942974811100000015264775984340284319_">
			<path id="XMLID_00000021095406289791835350000011985808295509294216_" class="st3" d="M94.7,32.7c0.1,0.5,0.3,1.1,0.5,1.7
				c0,0.1,0.1,0.2,0.2,0.2c1.2,0.8,2.5,1.5,3.9,2.2c0.5,0.3,1-0.5,0.5-0.8c-1.7-1.2-3.2-2.5-4.3-3.8C95.2,31.9,94.6,32.2,94.7,32.7z
				"/>
			<path id="XMLID_00000139996416359980669500000007913947974896690335_" class="st3" d="M109.4,40.4c1.7,0.8,3.2,1.6,4.5,2.2
				c0,0,0,0,0.1,0c5.1,1.7,9.5,2.9,12,3.9c2.8,1.1,5,3.3,6.7,5.6c0.6,0.8,1.1,1.8,1.6,2.7c-0.2-1.7-0.8-3.4-1.6-5
				c-1.4-2.5-3.3-5-5.9-6.4C120.6,40,101,32.9,93.6,23.1c-0.3-0.4-1-0.1-0.8,0.5C94.3,28,98.7,35.2,109.4,40.4z"/>
		</g>
		<path id="XMLID_00000137109492337460931220000009755604722775202468_" class="st5" d="M119.2,69.3c-1.6,1.1-5.9,4.4-7.9,11
			c-0.3,0.9,0.5,1.8,1.5,1.6c4.4-0.7,15.3-3.2,21.5-9.7c0.7-0.7,0.3-1.9-0.6-2.1c-1.3-0.3-3.1-0.6-5-0.2c-4.1,0.7-7-0.2-8.2-0.7
			C120.1,69,119.6,69,119.2,69.3z"/>
	</g>
</g>
</svg>
