<?xml version="1.0" encoding="utf-8"?>
<!-- Generator: Adobe Illustrator 27.8.1, SVG Export Plug-In . SVG Version: 6.00 Build 0)  -->
<svg version="1.1" id="Layer_1" xmlns="http://www.w3.org/2000/svg" xmlns:xlink="http://www.w3.org/1999/xlink" x="0px" y="0px"
	 viewBox="0 0 800 800" style="enable-background:new 0 0 800 800;" xml:space="preserve">
<style type="text/css">
	.st0{fill:#00CC00;}
	.st1{fill:#FF0000;}
	.st2{fill:#3C88AE;}
</style>
<g>
	<circle class="st0" cx="538" cy="536" r="56"/>
	<g>
		<g>
			<path class="st1" d="M537.5,450c7.5,0,14.6,1.2,21.5,3c23.9-31.8,41-69.1,41-111.4c0-64.4-51.2-116.6-114.5-116.6
				c-34.2,0-64.6,15.7-85.5,40.3c-21.1-24.5-51.6-40.3-85.7-40.3C251.2,225,200,277.2,200,341.6C200,487.5,400,575,400,575
				s21.9-9.7,51-27.6c-0.4-3.3-1-6.5-1-9.9C450,489.3,489.3,450,537.5,450z"/>
			<path class="st2" d="M400,0C179.1,0,0,179.1,0,400s179.1,400,400,400s400-179.1,400-400S620.9,0,400,0z M400,737.5
				C213.6,737.5,62.5,586.4,62.5,400S213.6,62.5,400,62.5S737.5,213.6,737.5,400S586.4,737.5,400,737.5z"/>
		</g>
	</g>
	<path d="M537.5,600c34.5,0,62.5-28,62.5-62.5S572,475,537.5,475S475,503,475,537.5S503,600,537.5,600z M537.5,490l30,35H550v50h-25
		v-50h-17.5L537.5,490z"/>
</g>
</svg>
