<?xml version="1.0" encoding="utf-8"?>
<!-- Generator: Adobe Illustrator 27.8.1, SVG Export Plug-In . SVG Version: 6.00 Build 0)  -->
<svg version="1.1" id="Layer_1" xmlns="http://www.w3.org/2000/svg" xmlns:xlink="http://www.w3.org/1999/xlink" x="0px" y="0px"
	 viewBox="0 0 30 60" style="enable-background:new 0 0 30 60;" xml:space="preserve">
<style type="text/css">
	.st0{fill:#449B38;}
	.st1{fill:#62C751;}
</style>
<rect class="st0" width="30" height="60"/>
<path class="st1" d="M25.5,9.6c-2.8,0-5-2.3-5-5.2H9.2c0,2.8-2.2,5.1-4.9,5.2v40.8c2.8,0,5,2.3,5,5.2h11.3c0-2.8,2.2-5.2,5-5.2V9.6
	C25.6,9.6,25.6,9.6,25.5,9.6z M15,46c-1,0-1.8-0.8-1.8-1.8c0-1,0.8-1.8,1.8-1.8s1.8,0.8,1.8,1.8C16.8,45.2,16,46,15,46z M15,17.6
	c-1,0-1.8-0.8-1.8-1.8c0-1,0.8-1.8,1.8-1.8s1.8,0.8,1.8,1.8C16.8,16.8,16,17.6,15,17.6z"/>
<path class="st0" d="M15,20.8c-4.9,0-8.9,4.1-8.9,9.2c0,5.1,4,9.2,8.9,9.2c4.9,0,8.9-4.1,8.9-9.2C23.9,24.9,19.9,20.8,15,20.8z
	 M21,31.1h-1.4c-0.3,1-0.9,1.8-1.7,2.1l-0.8-1.8c0.4-0.2,0.7-0.7,0.7-1.3s-0.3-1.1-0.7-1.3c-0.1-0.1-0.3-0.1-0.3,0
	c-0.1,0.1-0.4,0.3-0.8,1.6c-0.3,1-0.8,2.3-1.8,2.8c-0.4,0.2-1.1,0.4-1.9,0c-0.8-0.4-1.4-1.1-1.7-2H9v-2h1.4c0.2-1,0.9-1.9,1.7-2.3
	l0.8,1.8c-0.4,0.2-0.7,0.7-0.7,1.3c0,0.6,0.3,1.1,0.7,1.3c0.1,0.1,0.3,0.1,0.3,0c0.1-0.1,0.4-0.3,0.8-1.6c0.3-1,0.8-2.3,1.8-2.8
	c0.4-0.2,1.1-0.4,1.9,0c0.9,0.4,1.5,1.2,1.7,2.2H21V31.1z"/>
<ellipse class="st1" cx="5.5" cy="54.2" rx="1.3" ry="1.3"/>
<ellipse class="st1" cx="24.4" cy="54.2" rx="1.3" ry="1.3"/>
<ellipse class="st1" cx="5.6" cy="5.8" rx="1.3" ry="1.3"/>
<ellipse class="st1" cx="24.4" cy="5.8" rx="1.3" ry="1.3"/>
</svg>
