<?xml version="1.0" encoding="utf-8"?>
<!-- Generator: Adobe Illustrator 27.8.1, SVG Export Plug-In . SVG Version: 6.00 Build 0)  -->
<svg version="1.1" id="Layer_1" xmlns="http://www.w3.org/2000/svg" xmlns:xlink="http://www.w3.org/1999/xlink" x="0px" y="0px"
	 viewBox="0 0 800 800" style="enable-background:new 0 0 800 800;" xml:space="preserve">
<style type="text/css">
	.st0{fill:#8AFFD8;}
	.st1{fill:#AAB1BA;}
	.st2{fill:#FFE079;}
	.st3{fill:#ECF4F7;}
	.st4{fill:#51565F;}
</style>
<g transform="translate(1 1)">
	<path class="st0" d="M399,371.9c14.9,0,27.1,12.2,27.1,27.1c0,14.9-12.2,27.1-27.1,27.1c-14.9,0-27.1-12.2-27.1-27.1
		C371.9,384.1,384.1,371.9,399,371.9"/>
	<path class="st1" d="M792.2,399c0,46.1-8.1,89.5-23.1,130.2c-1.4-2.7-4.1-6.8-5.4-9.5c-1.4-2.7-4.1-6.8-6.8-9.5l0,0
		c-2.7-2.7-4.1-5.4-6.8-8.1c-2.7-2.7-5.4-5.4-8.1-8.1c-2.7-2.7-5.4-5.4-8.1-8.1l0,0c-1.4-1.4-4.1-4.1-5.4-5.4
		c6.8-25.8,9.5-52.9,9.5-81.4c0-187.1-151.9-339-339-339C211.9,60,60,211.9,60,399c0,89.5,33.9,169.5,90.8,230.5H80.4
		C32.9,564.4,5.8,485.8,5.8,399C5.8,182.1,182.1,5.8,399,5.8S792.2,182.1,792.2,399"/>
	<path class="st2" d="M769.2,530.5c14.9,25.8,23.1,54.2,23.1,85.4c0,97.6-78.6,176.3-176.3,176.3c-92.2,0-168.1-71.9-174.9-162.7
		c0-2.7,0-4.1,0-6.8s0-4.1,0-6.8c0-97.6,78.6-176.3,176.3-176.3c2.7,0,5.4,0,9.5,0c1.4,0,1.4,0,2.7,0h1.4c1.4,0,2.7,0,4.1,0
		c1.4,0,1.4,0,2.7,0c1.4,0,2.7,0,4.1,0s1.4,0,2.7,0l0,0h1.4c1.4,0,2.7,0,5.4,1.4l0,0c1.4,0,1.4,0,2.7,0c1.4,0,1.4,0,2.7,0
		c2.7,0,4.1,1.4,6.8,1.4h1.4c1.4,0,1.4,0,2.7,1.4c1.4,0,1.4,0,2.7,1.4c2.7,1.4,5.4,1.4,8.1,2.7c4.1,1.4,8.1,2.7,12.2,4.1
		c2.7,1.4,4.1,2.7,6.8,2.7c1.4,0,1.4,0,1.4,1.4c2.7,1.4,5.4,2.7,8.1,4.1c1.4,0,2.7,1.4,4.1,1.4c1.4,0,2.7,1.4,2.7,1.4
		c5.4,4.1,12.2,8.1,17.6,13.6c1.4,1.4,4.1,2.7,5.4,5.4l0,0c2.7,2.7,5.4,5.4,8.1,8.1s5.4,5.4,8.1,8.1c2.7,2.7,5.4,5.4,6.8,9.5l0,0
		c2.7,2.7,4.1,5.4,6.8,9.5C765.1,523.7,767.8,526.5,769.2,530.5L769.2,530.5z"/>
	<path class="st3" d="M738,399c0,27.1-4.1,55.6-9.5,81.4c-1.4,0-1.4-1.4-1.4-1.4c-4.1-2.7-6.8-5.4-10.8-8.1
		c-1.4-1.4-4.1-2.7-5.4-4.1c-1.4-1.4-2.7-1.4-2.7-1.4c-1.4-1.4-2.7-1.4-4.1-2.7c-2.7-1.4-5.4-2.7-8.1-4.1c0,0-1.4,0-1.4-1.4
		c-1.4,0-2.7-1.4-4.1-1.4c-1.4,0-1.4-1.4-2.7-1.4c-4.1-1.4-8.1-2.7-12.2-5.4c-2.7-1.4-5.4-1.4-8.1-2.7c-1.4,0-1.4,0-2.7-1.4
		c-1.4,0-1.4,0-2.7-1.4c-1.4,0-1.4,0-1.4,0c-2.7,0-4.1-1.4-6.8-1.4c-1.4,0-2.7,0-2.7-1.4c-1.4,0-1.4,0-2.7,0l0,0
		c-1.4,0-2.7,0-5.4-1.4h-1.4l0,0c-1.4,0-1.4,0-2.7,0c-1.4,0-2.7,0-4.1,0s-1.4,0-2.7,0c-1.4,0-2.7,0-4.1,0h-1.4c-1.4,0-1.4,0-2.7,0
		c-2.7,0-5.4,0-9.5,0c-97.6,0-176.3,78.6-176.3,176.3c0,2.7,0,4.1,0,6.8c0,2.7,0,4.1,0,6.8h-55.6h-81.4h-54.2h-54.2h-44.7
		c-55.6-61-90.8-141-90.8-230.5c0-187.1,151.9-339,339-339S738,211.9,738,399 M426.1,399c0-14.9-12.2-27.1-27.1-27.1
		c-14.9,0-27.1,12.2-27.1,27.1c0,14.9,12.2,27.1,27.1,27.1C413.9,426.1,426.1,413.9,426.1,399"/>
</g>
<path class="st4" d="M616.9,800c-100.3,0-183.1-82.7-183.1-183.1s82.7-183.1,183.1-183.1S800,516.6,800,616.9S717.3,800,616.9,800z
	 M616.9,447.5c-93.6,0-169.5,75.9-169.5,169.5s75.9,169.5,169.5,169.5s169.5-75.9,169.5-169.5S710.5,447.5,616.9,447.5z
	 M616.9,718.6c-4.1,0-6.8-2.7-6.8-6.8v-6.8c-23.1-2.7-40.7-23.1-40.7-47.5c0-4.1,2.7-6.8,6.8-6.8c4.1,0,6.8,2.7,6.8,6.8
	c0,19,14.9,33.9,33.9,33.9c19,0,33.9-14.9,33.9-33.9c0-19-14.9-33.9-33.9-33.9c-25.8,0-47.5-21.7-47.5-47.5
	c0-24.4,17.6-43.4,40.7-47.5V522c0-4.1,2.7-6.8,6.8-6.8c4.1,0,6.8,2.7,6.8,6.8v6.8c23.1,2.7,40.7,23.1,40.7,47.5
	c0,4.1-2.7,6.8-6.8,6.8c-4.1,0-6.8-2.7-6.8-6.8c0-19-14.9-33.9-33.9-33.9c-19,0-33.9,14.9-33.9,33.9c0,19,14.9,33.9,33.9,33.9
	c25.8,0,47.5,21.7,47.5,47.5c0,24.4-17.6,43.4-40.7,47.5v6.8C623.7,715.9,621,718.6,616.9,718.6z M48.8,584.4
	c-2.7,0-5.4-1.4-5.4-4.1C14.9,524.7,0,463.7,0,400C0,179,179,0,400,0s400,179,400,400c0,17.6,0,42-4.1,59.7
	c-1.4,4.1-4.1,5.4-8.1,5.4c-4.1-1.4-5.4-4.1-5.4-8.1c4.1-16.3,4.1-40.7,4.1-55.6c0-214.2-173.6-387.8-386.4-387.8
	S13.6,187.1,13.6,400c0,61,13.6,119.3,42,173.6c1.4,2.7,0,6.8-2.7,9.5C51.5,584.4,50.2,584.4,48.8,584.4z M111.2,583
	c-2.7,0-4.1-1.4-5.4-2.7C73.2,526.1,55.6,463.7,55.6,400c0-191.2,154.6-345.8,345.8-345.8S747.1,208.8,747.1,400c0,0,0,10.8-1.4,19
	c-1.4,4.1-4.1,5.4-8.1,5.4c-4.1-1.4-6.8-4.1-5.4-8.1c1.4-6.8,1.4-16.3,1.4-16.3c0-184.4-149.2-333.6-332.2-333.6
	S69.2,215.6,69.2,398.6c0,61,16.3,120.7,48.8,173.6c1.4,2.7,1.4,6.8-2.7,9.5C112.5,583,112.5,583,111.2,583z M151.9,549.2
	c-2.7,0-4.1-1.4-5.4-4.1c0-1.4-1.4-2.7-1.4-4.1c0-2.7,1.4-4.1,2.7-5.4l12.2-6.8c2.7-1.4,6.8-1.4,9.5,2.7c0,1.4,1.4,2.7,1.4,4.1
	c0,2.7-1.4,4.1-2.7,5.4l-12.2,6.8C153.2,549.2,153.2,549.2,151.9,549.2z M400,433.9c-16.3,0-29.8-12.2-32.5-27.1H210.2
	c-4.1,0-6.8-2.7-6.8-6.8s2.7-6.8,6.8-6.8h157.3c2.7-13.6,13.6-24.4,25.8-25.8V115.3c0-4.1,2.7-6.8,6.8-6.8s6.8,2.7,6.8,6.8v252.2
	c13.6,2.7,24.4,13.6,27.1,25.8h20.3c4.1,0,6.8,2.7,6.8,6.8s-2.7,6.8-6.8,6.8h-20.3C429.8,421.7,416.3,433.9,400,433.9z M400,379.7
	c-10.8,0-20.3,9.5-20.3,20.3s9.5,20.3,20.3,20.3s20.3-9.5,20.3-20.3S410.8,379.7,400,379.7z M155.9,406.8h-40.7
	c-4.1,0-6.8-2.7-6.8-6.8s2.7-6.8,6.8-6.8h40.7c4.1,0,6.8,2.7,6.8,6.8S160,406.8,155.9,406.8z M637.3,271.2c-2.7,0-4.1-1.4-5.4-4.1
	c0-1.4-1.4-2.7-1.4-4.1c0-2.7,1.4-4.1,4.1-5.4l12.2-6.8c2.7-1.4,6.8-1.4,9.5,2.7c0,1.4,1.4,2.7,1.4,4.1c0,2.7-1.4,4.1-4.1,5.4
	l-12.2,6.8C638.6,271.2,637.3,271.2,637.3,271.2z M164.1,267.1c-1.4,0-2.7,0-2.7-1.4l-12.2-6.8c-2.7-1.4-4.1-4.1-4.1-5.4
	c0-1.4,0-2.7,1.4-4.1c1.4-2.7,5.4-4.1,9.5-2.7l12.2,6.8c2.7,1.4,4.1,4.1,4.1,5.4c0,1.4,0,2.7-1.4,4.1
	C169.5,267.1,166.8,267.1,164.1,267.1z M539.7,170.8c-1.4,0-2.7,0-4.1-1.4c-2.7-1.4-4.1-4.1-4.1-5.4s0-2.7,1.4-4.1l6.8-12.2
	c1.4-2.7,5.4-4.1,9.5-2.7c2.7,1.4,4.1,4.1,4.1,5.4s0,2.7-1.4,4.1l-6.8,12.2C543.7,169.5,541,170.8,539.7,170.8z M264.4,169.5
	c-2.7,0-4.1-1.4-5.4-2.7l-6.8-12.2c0-1.4-1.4-2.7-1.4-4.1c0-2.7,1.4-4.1,2.7-5.4c2.7-1.4,6.8-1.4,9.5,2.7l6.8,12.2
	c0,1.4,1.4,2.7,1.4,4.1c0,2.7-1.4,4.1-2.7,5.4C267.1,169.5,265.8,169.5,264.4,169.5z M386.5,638.6l-300.2,0.7c-4.7,0-8.4-4.4-7.1-9
	c0.8-2.8,3.2-4.6,6.5-4.6l300.2-0.7c4.7,0,8.4,4.4,7.1,9C392.1,636.8,389.7,638.6,386.5,638.6z"/>
</svg>
